<svg width="24" height="23" viewBox="0 0 24 23" fill="none" xmlns="http://www.w3.org/2000/svg">
<path fill-rule="evenodd" clip-rule="evenodd" d="M10.7473 7.54219C11.319 6.77179 11.524 5.95985 10.8774 5.24315C9.4265 3.21291 8.45071 1.95742 7.83865 1.3528C6.67505 0.203347 4.7609 0.358829 3.75313 1.35182C3.21185 1.88516 3.0286 2.06831 2.47283 2.63283C-0.62294 5.73026 1.26502 12.2781 6.2839 17.3019C11.3016 22.3246 17.8489 24.2136 20.9511 21.1096C21.464 20.6152 21.8982 20.1807 22.2407 19.8188C23.2283 18.7749 23.3782 16.9452 22.2342 15.7565C21.6477 15.1471 20.4504 14.2184 18.3348 12.7051C17.6868 12.1257 16.9185 12.2512 16.2141 12.7133C15.8753 12.9356 15.6288 13.1605 15.1632 13.6265L14.3177 14.4725C14.2063 14.5839 12.6942 13.8266 11.2264 12.3574C9.75778 10.8873 9.00104 9.37512 9.11187 9.26429C9.34044 9.03575 9.62245 8.75358 9.95793 8.41777C10.1057 8.2699 10.1763 8.19832 10.2668 8.10313C10.4555 7.90482 10.6118 7.72485 10.7473 7.54219ZM15.8772 16.0325L16.7229 15.1864C16.9791 14.9299 17.1452 14.7722 17.2803 14.6635C19.1336 15.9944 20.207 16.8313 20.6454 17.2868C20.9086 17.5603 20.8677 18.0594 20.6389 18.3013C20.3222 18.636 19.9108 19.0476 19.4059 19.5346C17.3999 21.5415 12.1148 20.0166 7.84376 15.7414C3.5714 11.4649 2.04731 6.17898 4.0382 4.187C4.59174 3.6248 4.76711 3.44952 5.30067 2.92379C5.50072 2.72667 6.04565 2.6824 6.28901 2.9228C6.76024 3.3883 7.63435 4.50754 8.92022 6.29874C8.85366 6.38139 8.77051 6.47478 8.66933 6.58112C8.59507 6.65916 8.5332 6.72188 8.39795 6.85727C8.06273 7.19282 7.78098 7.47472 7.55272 7.70296C6.11482 9.14074 7.33939 11.5878 9.66642 13.9171C11.9918 16.2448 14.4398 17.4707 15.8772 16.0325ZM13.8348 0.625977C18.6052 1.2042 22.3877 4.98672 22.966 9.75709L20.7863 10.1204C20.3654 6.27791 17.314 3.22655 13.4716 2.80568L13.8348 0.625977ZM13.1085 4.9873C16.0231 5.24799 18.3445 7.56934 18.6052 10.484L16.4185 10.8485C16.3257 8.86135 14.7311 7.2668 12.744 7.17401L13.1085 4.9873Z" fill="white"/>
</svg>
