<svg width="162" height="46" viewBox="0 0 162 46" fill="none" xmlns="http://www.w3.org/2000/svg">
<g clip-path="url(#clip0_215_341)">
<path d="M24.3765 27.2602C23.9267 27.0526 23.3963 26.8335 22.9004 26.5683C22.0125 26.0955 21.1476 25.5881 20.2712 25.0922C19.5562 24.6886 18.8528 24.2965 18.1378 23.9044C17.1576 23.3624 16.1774 22.832 15.1973 22.3015C14.4477 21.8864 13.7097 21.4597 12.9716 21.0561C11.5994 20.3065 10.2156 19.5685 8.84329 18.819C8.16292 18.4499 7.50561 18.0463 6.83677 17.6658C5.4645 16.8932 4.06916 16.1436 2.69689 15.371C2.22409 15.1057 1.76282 14.8059 1.32462 14.483C0.863351 14.1486 0.828756 13.549 1.17471 13.0877C1.58985 12.5342 2.21256 12.2805 2.78914 11.9691C3.43492 11.6232 4.09223 11.2772 4.738 10.9313C5.64901 10.4354 6.56001 9.91648 7.48255 9.42062C8.67031 8.77484 9.86961 8.15213 11.0458 7.50636C12.3374 6.77986 13.6059 6.04183 14.8974 5.32687C16.2351 4.58884 17.5958 3.89693 18.9335 3.15891C20.2481 2.44394 21.5512 1.69438 22.8658 0.979415C23.2118 0.794908 23.5693 0.633464 23.9383 0.483552C24.3073 0.33364 24.6648 0.379767 25.0107 0.564274C25.668 0.921757 26.3253 1.27924 26.9942 1.62519C27.7091 2.00574 28.4356 2.37475 29.1506 2.7553C30.4652 3.47026 31.7683 4.21982 33.0944 4.92326C34.4667 5.66128 35.8505 6.35319 37.2228 7.09121C37.9032 7.4487 38.572 7.85231 39.2524 8.22132C40.2326 8.75178 41.2243 9.27071 42.216 9.80116C43.0002 10.2278 43.7728 10.6545 44.557 11.0812C45.2489 11.4502 45.9523 11.8077 46.6327 12.1998C46.9671 12.3958 47.29 12.638 47.5783 12.9147C48.028 13.3414 48.0626 14.4946 47.3361 14.8982C46.2521 15.5094 45.1681 16.1321 44.0842 16.7317C43.1847 17.2391 42.2852 17.735 41.3857 18.2308C39.9904 19.015 38.5951 19.7991 37.1882 20.5718C35.8621 21.2983 34.5244 22.0017 33.1982 22.7282C31.9528 23.4086 30.7074 24.112 29.462 24.7924C28.4702 25.3344 27.467 25.8648 26.4637 26.3953C26.0716 26.6028 25.6796 26.8104 25.2644 26.9834C25.0107 27.1102 24.7455 27.1564 24.3765 27.2602ZM5.04936 13.6643C5.04936 13.7104 5.04936 13.745 5.06089 13.7911C5.31459 13.9295 5.56828 14.0679 5.82198 14.2063C6.61767 14.6445 7.42489 15.0942 8.22057 15.5324C8.91248 15.913 9.61591 16.282 10.3078 16.6625C11.0689 17.0892 11.83 17.5274 12.6026 17.9425C13.5828 18.4845 14.5745 19.0035 15.5547 19.5339C16.2236 19.9029 16.8809 20.295 17.5497 20.664C18.922 21.4136 20.3058 22.1516 21.6781 22.9012C22.5775 23.397 23.4655 23.916 24.388 24.3888C24.5495 24.4695 24.8262 24.4695 24.9761 24.3888C26.187 23.743 27.3863 23.0741 28.5856 22.4053C29.9694 21.6327 31.3647 20.8601 32.7485 20.0874C34.2476 19.2572 35.7467 18.4269 37.2459 17.5851C38.2722 17.02 39.287 16.4434 40.3133 15.8784C41.0744 15.4632 41.847 15.0827 42.6081 14.6675C43.127 14.3908 43.6344 14.0794 44.1764 13.7565C44.0611 13.6758 43.9919 13.6182 43.9112 13.572C43.1732 13.1684 42.4351 12.7648 41.6971 12.3727C40.8783 11.9345 40.0481 11.5079 39.2293 11.0697C38.3068 10.5738 37.3958 10.0779 36.4732 9.59359C35.6084 9.13233 34.7435 8.68259 33.8786 8.20979C33.2098 7.84078 32.564 7.4487 31.8836 7.09121C30.9265 6.58382 29.9463 6.13408 29.0007 5.62669C27.663 4.91172 26.3484 4.16216 25.0107 3.4472C24.7801 3.32035 24.4918 3.21656 24.2381 3.2281C24.019 3.23963 23.7999 3.4126 23.5923 3.52792C22.7851 3.96612 21.9894 4.41586 21.1937 4.85407C20.2597 5.36146 19.3141 5.86885 18.3685 6.37625C17.642 6.76833 16.927 7.18347 16.212 7.58708C15.4625 7.99069 14.7014 8.38277 13.9518 8.78638C12.545 9.559 11.1496 10.3316 9.74276 11.1042C8.57806 11.7385 7.41335 12.3727 6.26019 13.007C5.84504 13.2145 5.45297 13.4452 5.04936 13.6643Z" fill="white"/>
<path d="M107.924 23.4431C124.887 23.4431 141.862 23.4431 158.825 23.4431C159.182 23.4431 159.54 23.4316 159.897 23.4431C160.554 23.4662 161.016 23.9044 161.073 24.5271C161.12 25.0921 160.716 25.6572 160.093 25.7379C159.643 25.8071 159.182 25.761 158.721 25.761C155.388 25.761 152.067 25.7725 148.734 25.7725C117.991 25.7956 87.2359 25.8071 56.4924 25.8302C55.9966 25.8302 55.4892 25.8532 55.074 25.4958C54.7396 25.219 54.6243 24.873 54.7165 24.4694C54.8088 24.0658 55.0048 23.7199 55.4661 23.6392C55.789 23.5815 56.1234 23.5469 56.4578 23.5469C65.5679 23.5238 74.6664 23.5123 83.7764 23.5008C91.8255 23.4892 99.8862 23.5008 107.935 23.5008C107.924 23.4892 107.924 23.4662 107.924 23.4431Z" fill="white"/>
<path d="M43.969 31.4922C43.0464 30.8695 41.9394 30.6273 41.1091 29.8086C41.3051 29.6932 41.4435 29.6125 41.5819 29.5433C42.2046 29.2204 42.8043 28.8514 43.4616 28.6093C43.7037 28.517 44.0612 28.6785 44.338 28.8053C45.0991 29.1513 45.8486 29.5318 46.5982 29.9123C47.2324 30.2237 47.7283 31.1232 47.6476 31.8266C47.5784 32.4147 47.1748 32.7607 46.6905 33.0259C45.7564 33.5448 44.8223 34.0522 43.8882 34.5712C42.2046 35.5052 40.5325 36.4508 38.8604 37.3849C37.3844 38.2036 35.9083 39.0339 34.4323 39.8527C33.3022 40.4869 32.1605 41.1096 31.0189 41.7323C30.2347 42.159 29.4506 42.5742 28.6664 43.0008C27.421 43.6697 26.1986 44.35 24.9417 44.9958C24.4573 45.2495 24.0076 45.0419 23.5694 44.7767C22.8083 44.3154 22.0357 43.8657 21.2746 43.4275C20.4558 42.9547 19.6256 42.4819 18.7953 42.0206C17.6536 41.3864 16.5005 40.7406 15.3588 40.1179C14.1365 39.4491 12.9026 38.7918 11.6687 38.1114C10.8961 37.6847 10.1465 37.235 9.38541 36.8083C8.09386 36.0933 6.79078 35.4014 5.49923 34.6865C4.73814 34.2713 4.01164 33.8101 3.26208 33.3834C2.92766 33.1989 2.58171 33.0374 2.23576 32.876C1.78602 32.6569 1.32475 32.4147 1.17484 31.9073C0.990335 31.2616 1.32475 30.7657 2.10891 30.3621C3.05451 29.8778 4.01164 29.3704 4.93418 28.8514C5.29166 28.6554 5.57995 28.6554 5.9259 28.863C6.49095 29.2089 7.0906 29.4972 7.66719 29.8201C7.77097 29.8778 7.92089 30.0277 7.89782 30.0738C7.8517 30.1891 7.72485 30.2929 7.62106 30.3506C6.8715 30.7657 6.09888 31.1578 5.24553 31.619C5.57995 31.8266 5.85671 32.0111 6.145 32.1726C6.99835 32.6454 7.86323 33.1066 8.7281 33.5794C9.68524 34.0984 10.6539 34.6173 11.611 35.1477C12.9372 35.8742 14.2518 36.6238 15.5779 37.3503C16.2929 37.7424 17.0194 38.1114 17.7228 38.5035C18.5531 38.9647 19.3719 39.4606 20.2137 39.9219C21.6321 40.706 23.062 41.4786 24.5035 42.2513C24.6188 42.3089 24.8264 42.332 24.9301 42.2628C26.5215 41.3749 28.0898 40.4523 29.6812 39.5644C31.0535 38.7918 32.4373 38.0422 33.8211 37.2696C35.0665 36.5777 36.3004 35.8627 37.5458 35.1708C38.5029 34.6403 39.4601 34.1214 40.4172 33.5794C41.5127 32.9682 42.6082 32.3455 43.7037 31.7228C43.7845 31.6652 43.8537 31.5844 43.969 31.4922Z" fill="white"/>
<path d="M44.0728 22.6358C43.2425 22.2552 42.5045 21.9439 41.7895 21.5864C41.5589 21.4711 41.3859 21.2405 41.1437 21.0214C41.9625 20.5716 42.6774 20.168 43.4155 19.799C43.5539 19.7298 43.7845 19.7183 43.9229 19.7759C44.3495 19.9604 44.7647 20.1795 45.1798 20.3986C45.4912 20.5601 45.8141 20.7215 46.1139 20.8945C46.7827 21.2751 47.417 21.6787 47.6591 22.4859C47.786 22.9356 47.6937 23.3277 47.3593 23.6045C46.898 23.9735 46.3791 24.2848 45.8602 24.5731C44.6955 25.242 43.5193 25.9108 42.3315 26.5566C41.3974 27.064 40.4403 27.5483 39.5062 28.0442C38.9066 28.367 38.3069 28.7015 37.7073 29.0359C36.8078 29.5317 35.9199 30.0507 35.0089 30.5465C33.8326 31.1808 32.6564 31.8035 31.4802 32.4377C30.3385 33.0489 29.2084 33.6716 28.0668 34.2943C27.3403 34.6979 26.6369 35.1246 25.9104 35.5167C25.4721 35.7473 25.0109 35.9434 24.5611 36.1394C24.146 36.3239 23.7539 36.2086 23.3849 36.001C22.0472 35.2515 20.7096 34.4904 19.3719 33.7293C18.0342 32.9682 16.7196 32.1725 15.3819 31.4114C14.1365 30.6964 12.8795 30.0045 11.6226 29.2896C10.0773 28.4132 8.52055 27.5368 6.97531 26.6488C5.54537 25.8185 4.12698 24.9652 2.70858 24.1118C2.37416 23.9043 2.05127 23.6852 1.71685 23.4661C0.955759 22.9702 0.978822 22.0477 1.76298 21.5864C2.30497 21.2751 2.85849 20.9868 3.41201 20.71C3.96553 20.4217 4.51905 20.1334 5.09564 19.8797C5.24555 19.8105 5.47618 19.8221 5.61456 19.8912C6.26034 20.2257 6.88305 20.5831 7.51729 20.9406C7.82865 21.1136 7.85171 21.2635 7.55189 21.4711C7.33279 21.621 7.07909 21.7017 6.83692 21.8286C6.32953 22.0823 5.8106 22.336 5.30321 22.6012C5.26861 22.6127 5.25708 22.6589 5.21096 22.728C5.74141 23.0279 6.24881 23.3162 6.76773 23.6045C7.65568 24.1118 8.53208 24.6192 9.42002 25.1151C10.7231 25.8531 12.0377 26.5912 13.3408 27.3292C14.4709 27.9865 15.601 28.6553 16.7311 29.3126C17.596 29.8085 18.4839 30.2813 19.3603 30.7772C20.525 31.4345 21.6667 32.1148 22.8314 32.7837C23.2465 33.0258 23.6847 33.245 24.1229 33.441C24.2152 33.4756 24.3651 33.441 24.4574 33.3833C25.6682 32.726 26.8675 32.0687 28.0668 31.4114C29.1738 30.8118 30.2809 30.2121 31.3764 29.6009C32.8294 28.7937 34.2824 27.975 35.7354 27.1793C37.6266 26.153 39.5178 25.1382 41.409 24.1118C42.2969 23.6506 43.1272 23.1662 44.0728 22.6358Z" fill="white"/>
<path d="M147.593 10.8274C147.731 15.2671 143.753 19.038 139.244 18.9458C134.908 18.865 131.091 15.4401 131.126 10.6891C131.149 6.27242 134.966 2.59381 139.463 2.58228C143.799 2.58228 147.754 6.43386 147.593 10.8274ZM145.229 10.7698C145.125 10.1586 145.056 9.53589 144.906 8.93624C144.606 7.71388 143.857 6.76828 142.888 6.00719C142.115 5.40754 141.227 5.027 140.236 4.92321C139.059 4.79636 137.906 4.87708 136.834 5.41907C136.153 5.76502 135.565 6.22629 135.035 6.80288C134.481 7.41406 134.078 8.09443 133.847 8.85552C133.663 9.45517 133.547 10.1009 133.559 10.7352C133.57 11.4617 133.663 12.2228 133.893 12.9147C134.262 13.9871 134.977 14.852 135.9 15.5439C137.526 16.7663 139.313 16.9277 141.204 16.4318C142.219 16.1666 143.026 15.5324 143.718 14.7713C144.744 13.6412 145.24 12.315 145.229 10.7698Z" fill="white"/>
<path d="M90.3726 18.5882C90.3726 18.4036 90.3726 18.2307 90.3726 18.0462C90.3726 13.1567 90.3726 8.26729 90.3726 3.38938C90.3726 2.88198 90.3726 2.87045 90.8915 2.88198C92.3791 2.90505 93.8667 2.84739 95.3427 2.98577C96.3229 3.06649 97.3146 3.30866 98.2256 3.67767C99.1482 4.05822 99.9439 4.69246 100.636 5.45355C101.535 6.45681 102.123 7.60998 102.377 8.92459C102.735 10.8273 102.619 12.707 101.743 14.4598C101.051 15.8321 99.9554 16.8699 98.6062 17.6541C97.4761 18.3229 96.2422 18.519 94.9852 18.5882C93.5553 18.6689 92.1138 18.6228 90.6839 18.6343C90.5917 18.6343 90.4994 18.6112 90.3726 18.5882ZM92.7135 16.4202C93.094 16.4202 93.44 16.4433 93.7744 16.4202C94.524 16.3741 95.2851 16.3741 96.0231 16.2126C96.9226 16.0166 97.7067 15.5323 98.4102 14.9211C99.3096 14.1369 99.8286 13.1221 100.059 11.9805C100.301 10.7581 100.175 9.55884 99.6786 8.3826C99.0329 6.86042 97.8797 5.96095 96.346 5.47661C95.3197 5.15373 94.2587 5.17679 93.1978 5.11913C92.8173 5.09607 92.702 5.22292 92.702 5.615C92.7135 9.06297 92.7135 12.5225 92.7135 15.9705C92.7135 16.1088 92.7135 16.2242 92.7135 16.4202Z" fill="white"/>
<path d="M156.138 11.8884C157.775 14.1371 159.367 16.3396 161.016 18.6114C160.797 18.6229 160.658 18.646 160.531 18.646C160.001 18.646 159.47 18.5768 158.963 18.6575C158.202 18.7728 157.845 18.3461 157.487 17.8041C156.968 17.02 156.415 16.2589 155.873 15.4863C155.411 14.829 154.973 14.1601 154.512 13.5028C154.224 13.0877 153.947 12.661 153.635 12.2689C153.555 12.1651 153.336 12.1536 153.128 12.0844C153.117 12.3151 153.105 12.465 153.105 12.6149C153.105 14.4715 153.093 16.3281 153.117 18.1847C153.117 18.5422 153.013 18.6575 152.667 18.646C152.171 18.6229 151.664 18.6229 151.168 18.646C150.81 18.669 150.683 18.5537 150.683 18.1732C150.695 14.1717 150.695 10.1586 150.695 6.15713C150.695 5.13081 150.706 4.10449 150.683 3.0897C150.683 2.76681 150.799 2.67456 151.11 2.67456C152.378 2.69762 153.647 2.66303 154.915 2.72069C155.965 2.76681 156.968 3.0897 157.833 3.66629C158.606 4.18521 159.113 4.94631 159.413 5.85731C159.943 7.44868 159.655 8.92474 158.721 10.2509C158.225 10.9543 157.475 11.4387 156.634 11.7154C156.461 11.75 156.334 11.8077 156.138 11.8884ZM154.189 4.91171C154.189 4.93477 154.177 4.95784 154.177 4.9809C153.912 4.9809 153.635 4.9809 153.37 4.9809C153.186 4.9809 153.093 5.03856 153.093 5.24613C153.093 6.75678 153.093 8.26744 153.093 9.76656C153.093 9.97413 153.174 10.0779 153.393 10.0548C154.062 9.97413 154.742 9.95106 155.4 9.80115C155.78 9.72043 156.172 9.51286 156.484 9.27069C157.279 8.64798 157.36 7.74851 157.233 6.8375C157.13 6.05335 156.611 5.52289 155.896 5.25766C155.354 5.06162 154.766 5.0155 154.189 4.91171Z" fill="white"/>
<path d="M108.016 16.3973C108.224 16.4088 108.374 16.4204 108.523 16.4204C110.299 16.4204 112.087 16.4319 113.863 16.4088C114.255 16.4088 114.382 16.5357 114.358 16.9162C114.324 17.3314 114.324 17.758 114.358 18.1847C114.382 18.5307 114.266 18.6575 113.909 18.646C113.24 18.6229 112.583 18.6344 111.914 18.6344C110.011 18.6344 108.097 18.6344 106.194 18.6344C106.021 18.6344 105.837 18.6114 105.629 18.5998C105.629 18.4384 105.629 18.3 105.629 18.1616C105.629 13.2491 105.629 8.33663 105.629 3.4126C105.629 2.88214 105.629 2.87061 106.148 2.87061C108.696 2.87061 111.245 2.87061 113.793 2.87061C114.358 2.87061 114.358 2.87061 114.358 3.44719C114.358 3.82774 114.358 4.21981 114.358 4.60036C114.358 5.10775 114.358 5.11929 113.863 5.11929C112.11 5.11929 110.357 5.11929 108.604 5.11929C108.028 5.11929 108.028 5.11929 108.028 5.67281C108.028 6.61841 108.039 7.56401 108.016 8.50961C108.016 8.82096 108.12 8.90168 108.408 8.90168C110.184 8.89015 111.971 8.90168 113.747 8.89015C114.07 8.89015 114.174 8.98241 114.162 9.30529C114.139 9.7089 114.162 10.124 114.162 10.5392C114.162 11.1734 114.162 11.1734 113.54 11.1734C111.868 11.1734 110.184 11.185 108.512 11.1619C108.131 11.1619 108.004 11.2542 108.016 11.6462C108.039 13.0646 108.028 14.483 108.028 15.913C108.016 16.0629 108.016 16.2012 108.016 16.3973Z" fill="white"/>
<path d="M129.119 6.46843C128.6 6.1686 128.139 5.92644 127.701 5.64967C126.49 4.88858 125.198 4.76173 123.803 4.95777C122.027 5.21147 120.793 6.23779 119.917 7.69079C118.994 9.23603 118.844 10.9197 119.363 12.6725C119.744 13.941 120.505 14.8981 121.531 15.6823C122.546 16.4549 123.711 16.7432 124.945 16.6624C125.66 16.6163 126.398 16.501 127.066 16.2588C127.643 16.0397 128.139 15.6015 128.681 15.2556C128.796 15.1749 128.9 15.0941 129.038 14.9904C129.073 15.0711 129.108 15.1287 129.108 15.1749C129.108 15.9705 129.119 16.7662 129.096 17.5504C129.096 17.6772 128.969 17.8617 128.842 17.9079C128.277 18.1616 127.701 18.3922 127.113 18.5882C125.798 19.0264 124.426 19.0495 123.1 18.7727C122.177 18.5767 121.266 18.2308 120.447 17.6888C119.513 17.0776 118.729 16.328 118.095 15.4401C117.553 14.6905 117.138 13.8602 116.93 12.9377C116.676 11.773 116.619 10.6083 116.803 9.43207C116.942 8.47494 117.276 7.587 117.772 6.75672C118.314 5.84571 118.971 5.05003 119.778 4.38119C120.436 3.85073 121.185 3.45865 121.981 3.12423C123.422 2.53612 124.898 2.45539 126.375 2.72062C127.262 2.88207 128.093 3.30874 128.946 3.63163C129.027 3.66622 129.108 3.81613 129.119 3.90839C129.119 4.7502 129.119 5.58049 129.119 6.46843Z" fill="white"/>
<path d="M75.0584 18.6344C74.3204 18.6344 73.6169 18.646 72.9135 18.6229C72.8328 18.6229 72.7405 18.4615 72.6829 18.3577C72.6483 18.3 72.6714 18.2078 72.6714 18.127C72.6714 13.2376 72.6714 8.34815 72.6714 3.45871C72.6714 2.88213 72.6714 2.8706 73.2364 2.88213C74.5049 2.89366 75.7734 2.8706 77.0419 2.96285C77.7799 3.02051 78.564 3.18195 79.1983 3.51637C80.8704 4.40431 81.5623 5.91497 81.5046 7.77157C81.4816 8.5096 81.3778 9.27069 80.9511 9.8934C80.6282 10.3777 80.2131 10.8275 79.7633 11.208C78.5986 12.1882 77.1687 12.2343 75.7388 12.2574C74.92 12.2689 75.0469 12.2113 75.0469 12.9608C75.0469 14.7021 75.0469 16.4434 75.0469 18.1847C75.0584 18.3115 75.0584 18.4499 75.0584 18.6344ZM75.0584 7.58706C75.0584 8.30203 75.0584 9.01699 75.0584 9.73196C75.0584 9.928 75.0815 10.0779 75.3352 10.0779C76.2462 10.0894 77.1572 10.1125 77.9875 9.6397C78.2527 9.48979 78.5064 9.29375 78.737 9.07465C79.1983 8.63645 79.2214 8.04833 79.2329 7.44868C79.2444 6.43389 78.714 5.81118 77.8376 5.4191C77.0188 5.06162 76.1424 5.09622 75.2775 5.11928C75.1968 5.11928 75.0699 5.31532 75.0699 5.43064C75.0469 6.1456 75.0584 6.86057 75.0584 7.58706Z" fill="white"/>
<path d="M50.5882 2.91663C50.7842 2.9051 50.9111 2.88203 51.0264 2.88203C51.626 2.88203 52.2257 2.88203 52.8369 2.88203C53.0675 2.88203 53.1944 2.93969 53.2981 3.18186C53.794 4.45034 54.3129 5.7073 54.8203 6.96425C55.2355 8.00211 55.6275 9.05149 56.0542 10.0893C56.527 11.254 56.9998 12.4187 57.4841 13.5834C57.4957 13.6065 57.5187 13.6065 57.5764 13.6411C57.7494 13.2721 57.957 12.9031 58.1069 12.5341C58.5912 11.3463 59.0294 10.1355 59.5253 8.94771C60.1941 7.29867 60.8975 5.66117 61.5779 4.01214C61.7048 3.72385 61.7855 3.41249 61.9239 3.1242C61.97 3.03195 62.0853 2.89357 62.166 2.89357C62.9271 2.8705 63.6997 2.88203 64.5992 2.88203C62.2352 8.5441 59.9058 14.1254 57.5303 19.8221C55.1778 14.1485 52.8945 8.56716 50.5882 2.91663Z" fill="white"/>
<path d="M68.8083 2.88208C68.8083 8.15207 68.8083 13.3644 68.8083 18.6113C68.0241 18.6113 67.2515 18.6113 66.4443 18.6113C66.4443 18.4499 66.4443 18.3346 66.4443 18.2077C66.4443 13.2721 66.4443 8.33657 66.4443 3.40101C66.4443 2.89361 66.4443 2.89361 66.9517 2.89361C67.5629 2.88208 68.174 2.88208 68.8083 2.88208Z" fill="white"/>
<path d="M126.398 33.0952C126.617 32.9568 126.824 32.83 127.043 32.6916C128.173 31.9882 129.603 32.4264 130.388 33.3143C131.241 34.2945 131.356 35.4131 131.114 36.6354C130.906 37.6963 130.249 38.3767 129.315 38.7919C128.393 39.207 127.528 39.011 126.72 38.4344C126.628 38.3652 126.536 38.296 126.386 38.1807C126.375 38.3537 126.351 38.4805 126.351 38.6074C126.351 39.6683 126.34 40.7292 126.351 41.7901C126.351 42.1245 126.236 42.2398 125.902 42.2398C124.852 42.2514 124.852 42.2629 124.852 41.225C124.852 38.4805 124.864 35.7244 124.841 32.9799C124.841 32.5878 124.956 32.4379 125.337 32.484C125.429 32.4956 125.521 32.484 125.602 32.484C126.259 32.5071 126.259 32.5071 126.398 33.0952ZM126.225 35.6437C126.317 36.9814 126.836 37.6387 127.977 37.6733C129.131 37.7079 129.753 36.8776 129.765 35.7129C129.776 34.5713 129.2 33.6833 128.047 33.6948C126.893 33.7064 126.34 34.306 126.225 35.6437Z" fill="white"/>
<path d="M95.7924 38.2267C95.7924 38.6995 95.7924 39.1377 95.7924 39.5875C95.7924 40.337 95.7809 41.0981 95.7924 41.8477C95.8039 42.136 95.7117 42.2513 95.4003 42.2628C94.3163 42.2859 94.3163 42.2974 94.3163 41.225C94.3163 38.4804 94.3279 35.7474 94.3048 33.0029C94.3048 32.6108 94.4086 32.4494 94.8007 32.507C94.9045 32.5185 95.0082 32.507 95.112 32.507C95.7347 32.507 95.7347 32.507 95.8385 33.1182C95.9884 33.0144 96.1384 32.9222 96.2767 32.8184C98.0065 31.5729 100.267 32.9567 100.567 34.698C100.751 35.8051 100.751 36.8775 100.071 37.8116C99.3326 38.8148 98.0295 39.2876 96.9225 38.8494C96.542 38.6995 96.2075 38.4574 95.7924 38.2267ZM99.2519 35.8743C99.2519 34.7442 98.6753 33.9485 97.7989 33.7178C97.0724 33.5218 96.2421 33.9254 95.9308 34.6173C95.654 35.217 95.6425 35.8397 95.827 36.4509C95.9192 36.7622 96.1153 37.0966 96.3575 37.2927C96.9571 37.7885 97.6721 37.8347 98.3294 37.4541C98.9636 37.0851 99.1827 36.4163 99.2519 35.8743Z" fill="white"/>
<path d="M140.616 38.3767C140.005 38.5958 139.428 38.9072 138.829 38.9879C137.583 39.1494 136.246 38.1692 135.888 36.82C135.577 35.6553 135.704 34.6059 136.338 33.6026C136.776 32.8992 137.929 32.2765 138.863 32.3687C139.463 32.4264 139.901 32.7377 140.374 33.026C140.443 33.0722 140.512 33.1068 140.593 33.1529C140.743 32.5186 140.743 32.5186 141.435 32.5186C141.527 32.5186 141.619 32.5302 141.7 32.5186C142 32.4956 142.127 32.6109 142.127 32.9338C142.115 34.7789 142.115 36.6239 142.127 38.4575C142.127 38.7458 142.035 38.8611 141.746 38.838C141.608 38.8265 141.47 38.838 141.32 38.838C140.731 38.838 140.731 38.838 140.616 38.3767ZM137.203 35.6783C137.168 36.1742 137.33 36.6124 137.629 37.0275C137.987 37.5349 138.483 37.7079 139.048 37.6733C139.694 37.6387 140.293 37.385 140.489 36.7277C140.639 36.2088 140.685 35.6322 140.651 35.0902C140.605 34.5021 140.247 34.0293 139.682 33.8217C139.082 33.6026 138.471 33.5911 137.941 34.0293C137.433 34.4444 137.157 34.998 137.203 35.6783Z" fill="white"/>
<path d="M157.833 38.1806C157.452 38.4112 157.199 38.5496 156.957 38.6995C156.253 39.1262 155.504 39.1031 154.789 38.8033C153.981 38.4689 153.347 37.8923 153.082 37.0505C152.655 35.6898 152.678 34.329 153.751 33.2335C154.731 32.2302 156.184 31.9535 157.395 32.9452C157.487 33.0259 157.614 33.0721 157.741 33.1412C157.845 32.507 157.845 32.507 158.456 32.4955C158.559 32.4955 158.663 32.507 158.767 32.4955C159.101 32.4609 159.205 32.5993 159.205 32.9337C159.194 34.7442 159.194 36.5662 159.205 38.3766C159.205 38.7457 159.078 38.861 158.744 38.8148C158.629 38.8033 158.513 38.8033 158.398 38.8148C158.029 38.861 157.66 38.884 157.833 38.1806ZM154.339 35.8627C154.385 36.0357 154.454 36.3817 154.558 36.7161C154.869 37.6732 156.276 38.0192 157.164 37.3388C157.879 36.7853 158.075 35.3899 157.533 34.4674C157.095 33.7294 155.93 33.5103 155.25 33.9023C154.546 34.2944 154.373 34.9402 154.339 35.8627Z" fill="white"/>
<path d="M108.108 36.0011C106.517 36.0011 105.064 36.0011 103.599 36.0011C103.576 36.7392 103.934 37.4311 104.672 37.6156C105.398 37.8001 106.148 37.5349 106.54 36.9121C106.828 36.4509 106.84 36.4509 107.313 36.7276C108.085 37.1774 108.085 37.1774 107.555 37.8693C106.736 38.9533 104.868 39.2761 103.703 38.6765C102.562 38.0768 102.066 37.1774 102.02 35.955C101.985 35.0671 102.054 34.2022 102.654 33.4642C103.311 32.6454 104.164 32.2879 105.191 32.3456C106.459 32.4032 107.336 33.049 107.785 34.2137C107.993 34.7557 107.993 35.3554 108.108 36.0011ZM106.436 34.8134C106.436 34.1215 105.906 33.7409 105.145 33.7063C104.51 33.6833 103.784 33.937 103.68 34.8134C104.591 34.8134 105.502 34.8134 106.436 34.8134Z" fill="white"/>
<path d="M73.986 36.0011C73.5478 36.0011 73.1326 36.0011 72.706 36.0011C71.8065 36.0011 70.9186 36.0011 70.0191 36.0011C69.5232 36.0011 69.5348 36.0011 69.6385 36.4854C69.7654 37.0736 70.0998 37.4772 70.6879 37.6155C71.2991 37.7655 71.8526 37.6617 72.3139 37.2235C72.4523 37.0851 72.533 36.8775 72.6714 36.7391C72.7636 36.6469 72.9597 36.5546 73.0519 36.6008C73.3979 36.7737 73.7208 36.9928 74.0437 37.2004C72.9366 39.23 70.5265 39.5759 68.9582 38.1921C68.5084 37.7885 68.174 37.2581 68.0933 36.6238C67.9895 35.7705 67.9088 34.9056 68.2893 34.1099C68.8775 32.853 70.0306 32.2648 71.3568 32.3686C73.271 32.5185 74.2397 34.3751 73.986 36.0011ZM72.4523 34.8249C72.3946 33.9139 71.6681 33.6948 71.0454 33.7063C70.3535 33.7178 69.6731 34.133 69.7193 34.8249C70.6187 34.8249 71.5182 34.8249 72.4523 34.8249Z" fill="white"/>
<path d="M123.261 35.6783C123.388 37.6618 121.623 39.0225 119.905 39.011C118.21 38.9879 116.607 37.7194 116.619 35.6322C116.63 33.6603 118.199 32.3687 119.928 32.3572C121.693 32.3341 123.376 33.7525 123.261 35.6783ZM118.06 35.6091C118.06 36.6009 118.533 37.3389 119.317 37.5811C120.182 37.8578 121.162 37.5349 121.497 36.8661C121.866 36.1396 121.866 35.4362 121.577 34.652C121.162 33.5104 119.259 33.4066 118.625 34.1908C118.291 34.6174 118.002 35.0787 118.06 35.6091Z" fill="white"/>
<path d="M85.2755 37.4657C86.4633 37.4657 87.6395 37.4657 88.8734 37.4657C88.8734 37.8693 88.8849 38.2383 88.8734 38.6073C88.8619 38.884 88.6428 38.8264 88.4698 38.8264C87.0399 38.8264 85.5984 38.8264 84.1685 38.8264C83.6957 38.8264 83.2229 38.8264 82.7501 38.8264C82.6117 38.8264 82.4849 38.7918 82.2773 38.7687C83.615 37.1428 84.918 35.5629 86.2557 33.9254C86.0712 33.9139 85.9444 33.8908 85.8175 33.8908C85.0334 33.8908 84.2607 33.8793 83.4766 33.8908C83.1883 33.8908 83.0614 33.7986 83.073 33.4987C83.0845 32.3802 82.9461 32.507 84.0532 32.507C85.5638 32.507 87.0745 32.507 88.5851 32.507C88.735 32.507 88.8849 32.5186 89.0349 32.5301C89.0579 32.5647 89.081 32.5993 89.104 32.6223C87.801 34.2022 86.5094 35.782 85.2063 37.3619C85.2179 37.408 85.2409 37.4426 85.2755 37.4657Z" fill="white"/>
<path d="M110.991 33.0721C111.245 32.9222 111.406 32.853 111.533 32.7493C112.79 31.7921 114.854 32.5532 114.947 34.2023C115.016 35.4246 115.039 36.6585 115.039 37.8809C115.05 38.9187 115.212 38.8265 114.105 38.8265C113.54 38.8265 113.54 38.8265 113.54 38.2614C113.54 37.3273 113.551 36.3933 113.54 35.4592C113.54 35.1017 113.494 34.7442 113.447 34.3868C113.401 34.0639 113.194 33.8678 112.882 33.7756C111.695 33.4296 111.095 33.9947 111.037 35.194C110.991 36.2434 111.003 37.2928 111.026 38.3421C111.037 38.6996 110.934 38.838 110.553 38.8265C109.4 38.7919 109.573 38.9648 109.573 37.8578C109.561 36.2318 109.584 34.6059 109.561 32.9799C109.561 32.6109 109.665 32.4494 110.046 32.484C110.196 32.4956 110.357 32.4956 110.507 32.484C110.841 32.484 111.13 32.4956 110.991 33.0721Z" fill="white"/>
<path d="M62.6157 37.4426C62.9501 37.2927 63.2615 37.1312 63.5959 37.0044C63.6766 36.9698 63.8265 37.0736 63.9188 37.1428C64.184 37.3157 64.4147 37.5464 64.6914 37.6501C64.9797 37.7539 65.2795 37.6502 65.4641 37.3734C65.614 37.1428 65.5217 36.693 65.2565 36.52C64.8875 36.2779 64.4954 36.0588 64.0918 35.8743C63.4806 35.586 62.9617 35.2285 62.881 34.4789C62.8233 33.9254 62.9271 33.4411 63.3422 33.0144C63.9188 32.4263 64.5876 32.2187 65.3603 32.4263C65.8792 32.5647 66.2713 32.9222 66.4904 33.418C66.525 33.4987 66.4327 33.6832 66.352 33.764C66.2251 33.8793 66.0406 33.9369 65.8792 34.0177C65.614 34.133 65.3949 34.2022 65.1642 33.9023C64.9682 33.6371 64.553 33.6371 64.3801 33.8332C64.1956 34.0292 64.2763 34.3751 64.5761 34.5942C64.7837 34.7442 65.0258 34.8249 65.2449 34.9402C65.5217 35.0901 65.7985 35.24 66.0752 35.3899C67.0439 35.9089 67.1131 36.6008 66.9286 37.5348C66.7787 38.2498 65.8331 38.9186 65.0489 39.0109C64.1148 39.1147 62.8579 38.4689 62.6157 37.4426Z" fill="white"/>
<path d="M143.637 37.4426C143.96 37.2927 144.283 37.1312 144.618 37.0044C144.687 36.9813 144.86 37.0851 144.917 37.1658C145.229 37.5925 145.667 37.7885 146.105 37.6156C146.267 37.5464 146.451 37.3849 146.509 37.2235C146.578 36.9929 146.578 36.7046 146.301 36.5431C145.771 36.2433 145.263 35.8858 144.71 35.6552C143.661 35.217 143.73 33.3719 144.514 32.8299C145.079 32.4378 145.632 32.2533 146.29 32.4032C146.866 32.5416 147.258 32.9337 147.535 33.4296C147.57 33.4872 147.454 33.6717 147.374 33.7525C147.281 33.8332 147.132 33.8332 147.028 33.9024C146.705 34.1099 146.428 34.2137 146.117 33.8332C145.921 33.591 145.483 33.6487 145.321 33.8447C145.171 34.0292 145.263 34.3521 145.575 34.5481C146.071 34.848 146.578 35.1363 147.108 35.3784C148.354 35.9435 148.319 37.777 147.178 38.5381C146.67 38.8725 146.14 39.0224 145.517 38.9763C144.814 38.9417 143.787 38.2729 143.637 37.4426Z" fill="white"/>
<path d="M58.718 39.2185C58.1184 37.9616 57.5764 36.8315 57.0459 35.7129C56.5847 34.7557 56.1119 33.7986 55.6506 32.8415C55.5353 32.5993 55.6506 32.5071 55.8812 32.5186C56.0196 32.5186 56.158 32.5186 56.3079 32.5186C57.2881 32.5301 57.069 32.3802 57.5187 33.3489C57.9108 34.2022 58.2913 35.0556 58.7411 36.0242C58.9025 35.7475 59.0294 35.563 59.1216 35.3669C59.5137 34.502 59.9058 33.6256 60.2979 32.7608C60.3325 32.6916 60.3786 32.5878 60.4362 32.5878C60.909 32.5647 61.3703 32.5532 61.8431 32.5532C61.8431 32.6916 61.8892 32.8415 61.8431 32.9453C61.3934 33.8678 60.9206 34.7903 60.4708 35.7129C59.998 36.6931 59.5368 37.6848 59.064 38.6765C58.9602 38.8264 58.8449 38.9763 58.718 39.2185Z" fill="white"/>
<path d="M132.821 27.9404C133.328 27.9404 133.789 27.9404 134.297 27.9404C134.297 28.1134 134.297 28.2518 134.297 28.3902C134.297 31.6998 134.297 35.0209 134.297 38.3305C134.297 38.8264 134.297 38.8264 133.778 38.8379C132.821 38.8379 132.821 38.8379 132.821 37.9038C132.821 34.7441 132.821 31.5844 132.821 28.4248C132.821 28.2633 132.821 28.1134 132.821 27.9404Z" fill="white"/>
<path d="M149.438 36.324C149.438 35.6436 149.426 34.9633 149.438 34.2944C149.438 34.0407 149.415 33.8678 149.103 33.8908C148.884 33.9139 148.815 33.764 148.827 33.5679C148.827 33.3604 148.838 33.1528 148.827 32.9568C148.815 32.68 148.896 32.5301 149.196 32.4955C149.288 32.484 149.426 32.2994 149.426 32.1957C149.449 31.6421 149.449 31.1002 149.438 30.5466C149.438 30.316 149.53 30.2353 149.749 30.2237C150.914 30.1546 150.914 30.143 150.914 31.2962C150.914 31.573 150.925 31.8612 150.914 32.138C150.902 32.4032 151.018 32.4955 151.271 32.507C152.056 32.5531 152.056 32.5531 152.056 33.3258C152.056 33.8908 152.056 33.8908 151.491 33.8908C150.914 33.8908 150.914 33.8908 150.914 34.4789C150.914 35.7936 150.902 37.1197 150.925 38.4343C150.925 38.7341 150.833 38.8379 150.533 38.8379C149.449 38.8495 149.449 38.861 149.449 37.777C149.438 37.3042 149.438 36.8083 149.438 36.324Z" fill="white"/>
<path d="M79.6711 35.6435C79.6711 34.7325 79.6827 33.833 79.6711 32.922C79.6711 32.6222 79.7749 32.5069 80.0748 32.5069C81.424 32.5184 81.1587 32.3569 81.1703 33.5447C81.1818 35.1707 81.1703 36.7851 81.1818 38.4111C81.1818 38.7224 81.0895 38.8493 80.7667 38.8378C79.452 38.8147 79.6942 38.9992 79.6827 37.7884C79.6711 37.0734 79.6711 36.3584 79.6711 35.6435Z" fill="white"/>
<path d="M80.4437 28.9668C80.9396 28.9668 81.3432 29.3935 81.3432 29.9124C81.3432 30.4659 80.9857 30.8349 80.4553 30.8465C79.9363 30.8465 79.4981 30.4313 79.4866 29.9239C79.4751 29.4396 79.9479 28.9668 80.4437 28.9668Z" fill="white"/>
</g>
<defs>
<clipPath id="clip0_215_341">
<rect width="160.141" height="44.7199" fill="white" transform="translate(0.944214 0.391113)"/>
</clipPath>
</defs>
</svg>
