<svg width="74" height="75" viewBox="0 0 74 75" fill="none" xmlns="http://www.w3.org/2000/svg">
<path d="M0 30.1C0 20.2 0 10.2 0 0.300049C24.7 0.300049 49.3 0.300049 74 0.300049C74 25 74 49.6 74 74.3C49.3 74.3 24.7 74.3 0 74.3C0 61.3 0 48.3 0 35.2001C0.5 36.5 1.5 37.1 2.9 37.1C3.4 37.1 3.9 37.2001 4.4 37.3C5.1 37.4 5.4 38.3 5 38.8C4.6 39.4 4.1 39.9001 3.7 40.5C2.8 41.7001 2.9 42.9001 3.9 44C4.8 44.9001 5.6 45.7 6.5 46.6C7.5 47.6 8.8 47.6 9.9 46.8C10.4 46.4 10.8 46.1001 11.3 45.7001C12.2 45 13 45.3 13.1 46.5C13.2 47 13.2 47.5 13.3 48C13.5 49.7001 14.4 50.5 16.1 50.5C16.8 50.5 17.5 50.5 18.1 50.5C18.1 50.7001 18.2 50.7001 18.2 50.7001C18.2 52.1001 18.2 53.4 18.2 54.8C18.2 56.5 19.1 57.6 20.9 57.8C21.6 57.9 22.4 58 23.1 58.1C23.8 58.2 24.3 59.3 23.8 59.9C23.3 60.5 22.8 61.2001 22.3 61.8C21.4 63 21.5 64.4 22.5 65.5C23.5 66.5 24.5 67.5 25.5 68.5C26.6 69.5 27.9 69.6001 29.1 68.7001C29.8 68.2001 30.4 67.7001 31.1 67.2001C31.7 66.8 32.8 67.2001 32.9 67.9C33 68.8 33.1 69.7001 33.3 70.6001C33.5 71.9001 34.6 72.8 35.9 72.8C37.3 72.8 38.8 72.8 40.2 72.8C41.6 72.8 42.6 71.9 42.8 70.5C42.9 69.6 43 68.8 43.1 67.9C43.2 67.1 44.3 66.7001 45 67.2001C45.6 67.7001 46.3 68.2001 46.9 68.7001C48.1 69.6001 49.5 69.5 50.5 68.5C51.5 67.5 52.5 66.5 53.5 65.5C54.5 64.4 54.6 63.1 53.7 61.9C53.2 61.2 52.6 60.5 52.1 59.8C51.7 59.3 52.2 58.1 52.9 58C53.7 57.9001 54.5 57.8 55.3 57.7001C57 57.5 57.8 56.5 57.9 54.8C57.9 53.9 57.9 53 57.9 52.1C57.9 50.7 58 49.3 56.5 48.4C56.8 48.3 56.9 48.3 57 48.2001C68.3 44.4001 75 33.8 73.4 21.9C72.1 10.9 62.2 2.00005 51 1.60005C40.8 1.30005 31.7 7.20005 27.9 16.5C27.6 17.3 27.4 18.1 26.3 18.2C26.1 18.2 25.8 18.5 25.6 18.6C25.1 19 24.6 19.4 24.1 19.7C23.4 20.2 22.6 19.9 22.5 19C22.4 18.3 22.4 17.6 22.2 16.9C21.9 15.6 21 14.8 19.7 14.8C18.5 14.8 17.2 14.8 16 14.8C14.5 14.8 13.5 15.7 13.4 17.2C13.3 17.8 13.3 18.4 13.2 19C13.1 20 12.3 20.3 11.5 19.7C11 19.3 10.4 18.8 9.8 18.4C8.8 17.7 7.5 17.7 6.6 18.6C5.6 19.5 4.7 20.5 3.8 21.5C2.9 22.4 2.9 23.7 3.6 24.7C4 25.2 4.4 25.7 4.8 26.2C5.1 26.5 5.2 26.8 5 27.3C4.8 27.8 4.5 27.9 4 27.9C3.6 27.9 3.2 28 2.8 28C1.5 28.1 0.5 28.8 0 30.1Z" fill="white"/>
<path d="M0 30.1C0.5 28.7 1.5 28.1 2.9 28.1C3.3 28.1 3.7 28 4.1 28C4.5 27.9 4.9 27.9 5.1 27.4C5.3 26.9 5.1 26.6 4.9 26.3C4.5 25.8 4.1 25.3 3.7 24.8C2.9 23.8 3 22.5 3.9 21.6C4.8 20.6 5.8 19.7 6.7 18.7C7.6 17.9 8.9 17.8 9.9 18.5C10.5 18.9 11 19.4 11.6 19.8C12.4 20.4 13.2 20.1 13.3 19.1C13.4 18.5 13.4 17.9 13.5 17.3C13.7 15.8 14.6 14.9 16.1 14.9C17.3 14.9 18.6 14.9 19.8 14.9C21.1 14.9 22.1 15.7 22.3 17C22.4 17.7 22.5 18.4 22.6 19.1C22.7 20 23.6 20.3 24.2 19.8C24.7 19.4 25.2 19 25.7 18.7C25.9 18.5 26.1 18.3 26.4 18.3C27.5 18.2 27.6 17.4 28 16.6C31.7 7.20004 40.8 1.30004 51 1.60004C62.2 1.90004 72.1 10.9 73.6 22C75.2 33.9 68.5 44.5 57.2 48.3C57.1 48.3 57 48.4 56.7 48.5C58.2 49.4 58.1 50.8 58.1 52.2C58.1 53.1 58.1 54 58.1 54.9C58.1 56.6 57.2 57.6 55.5 57.8C54.7 57.9 53.9 58 53.1 58.1C52.4 58.2 51.9 59.3 52.3 59.9C52.8 60.6 53.4 61.3 53.9 62C54.8 63.2 54.7 64.5 53.7 65.6C52.7 66.6 51.7 67.6 50.7 68.6C49.6 69.7 48.3 69.7 47.1 68.8C46.4 68.3 45.8 67.8 45.2 67.3C44.6 66.8 43.5 67.3 43.3 68C43.2 68.9 43.1 69.7 43 70.6C42.8 72 41.8 72.9 40.4 72.9C39 72.9 37.5 72.9 36.1 72.9C34.7 72.9 33.7 72 33.5 70.7C33.3 69.8 33.3 68.9 33.1 68C33 67.3 31.9 66.8 31.3 67.3C30.6 67.8 30 68.3 29.3 68.8C28.1 69.7 26.8 69.6 25.7 68.6C24.7 67.6 23.7 66.6 22.7 65.6C21.6 64.5 21.6 63.1 22.5 61.9C23 61.2 23.5 60.6 24 60C24.5 59.4 24 58.3 23.3 58.2C22.6 58.1 21.8 58 21.1 57.9C19.4 57.7 18.4 56.7 18.4 54.9C18.4 53.5 18.4 52.2 18.4 50.8C18.4 50.8 18.4 50.7 18.3 50.6C17.6 50.6 17 50.6 16.3 50.6C14.6 50.6 13.7 49.7 13.5 48.1C13.4 47.6 13.4 47.1 13.3 46.6C13.1 45.4 12.4 45.1 11.5 45.8C11 46.2 10.6 46.5 10.1 46.9C9 47.7 7.7 47.7 6.7 46.7C5.8 45.8 5 45 4.1 44.1C3.1 43 3 41.8 3.9 40.6C4.3 40 4.8 39.5 5.2 38.9C5.6 38.4 5.2 37.5 4.6 37.4C4.1 37.3 3.6 37.2 3.1 37.2C1.7 37.2 0.7 36.5 0.2 35.3C0 33.5 0 31.8 0 30.1ZM54.8 41.9C55.1 41.8 55.5 41.7 55.9 41.5C58.3 40.6 60.4 39.2 62.3 37.4C62.9 36.8 63.6 36.7 64.1 37.3C64.5 37.8 64.4 38.3 63.8 38.9C61.4 41.4 58.5 43.1 55.2 44C54 44.3 53.1 44.8 52.6 45.8C52.5 46.1 52.5 46.4 52.4 46.7C52.7 46.8 53 46.9 53.2 46.9C65.2 45 73.3 34.1 71.5 22.2C69.2 7.20004 52.3 -0.999963 39.2 6.70004C32.5 10.6 28.8 16.6 28.3 24.4C28 29.4 29.4 34 32.3 38.2C32.4 38.4 32.6 38.5 32.8 38.6C32.9 38.4 32.9 38.4 32.9 38.3C33 37.5 33.1 36.7 33.2 35.9C33.2 35.6 33.1 35.2 33 35C30.8 30.9 30.1 26.6 30.9 22C32.7 11.5 43.4 4.30004 53.9 6.60004C64.6 9.00004 71.1 19.2 68.7 29.9C68.3 31.7 67.5 33.3 66.8 35C66.5 35.7 65.9 35.9 65.3 35.6C64.7 35.3 64.6 34.7 64.9 34C64.9 33.9 65 33.8 65 33.7C66.8 30.4 67.4 26.8 66.9 23C65.6 13.6 56.4 6.90004 47.1 8.60004C37.2 10.3 31 19.8 33.3 29.6C33.6 30.9 34.2 32.2 34.6 33.4C35.1 33.2 35.4 33.1 35.7 33.1C37.3 33.1 39 33 40.6 33.1C41.9 33.2 42.7 34.1 42.9 35.4C43 36.3 43.1 37.1 43.2 38C43.3 38.8 44.4 39.2 45.1 38.7C45.7 38.2 46.4 37.7 47 37.2C48.2 36.3 49.6 36.4 50.7 37.4C51.5 38.2 52.4 39 53.1 39.9C53.7 40.5 54.2 41.2 54.8 41.9ZM52.4 42.3C52.3 42.1 52.2 41.9 52.1 41.8C51.2 40.9 50.3 40 49.4 39C49 38.6 48.7 38.7 48.3 39C47.5 39.7 46.6 40.3 45.7 41C45.2 41.4 44.7 41.4 44.2 41.2C43.6 40.9 43 40.6 42.4 40.4C41.6 40.2 41.3 39.7 41.2 38.9C41.1 37.9 41 36.9 40.8 35.9C40.7 35.4 40.5 35.1 40 35.1C38.8 35.1 37.5 35.1 36.3 35.1C35.7 35.1 35.5 35.4 35.5 35.9C35.4 36.9 35.2 38 35.1 39C35 39.6 34.7 40 34.1 40.2C33.4 40.4 32.8 40.7 32.2 41C31.6 41.3 31.2 41.2 30.7 40.8C29.9 40.1 29 39.5 28.1 38.8C27.7 38.5 27.4 38.5 27 38.9C26.1 39.8 25.3 40.7 24.4 41.5C24 41.9 24 42.2 24.3 42.6C25 43.4 25.6 44.3 26.3 45.2C26.7 45.7 26.7 46.2 26.5 46.7C26.2 47.3 25.9 47.9 25.8 48.5C25.6 49.3 25.1 49.6 24.3 49.7C23.3 49.8 22.3 49.9 21.4 50C20.8 50.1 20.6 50.3 20.6 50.9C20.6 52.1 20.6 53.3 20.6 54.4C20.6 55.1 20.8 55.3 21.5 55.4C22.5 55.5 23.5 55.7 24.6 55.8C25.2 55.9 25.6 56.2 25.8 56.8C26 57.5 26.3 58.1 26.6 58.7C26.9 59.3 26.8 59.7 26.4 60.2C25.7 61 25.1 61.9 24.4 62.8C24.1 63.2 24.1 63.5 24.5 63.9C25.4 64.8 26.3 65.6 27.1 66.6C27.5 67 27.8 67 28.2 66.7C29 66 29.9 65.4 30.8 64.7C31.3 64.3 31.8 64.3 32.3 64.5C32.9 64.8 33.6 65.1 34.3 65.3C34.8 65.5 35.1 65.8 35.2 66.4C35.3 67.5 35.5 68.6 35.6 69.7C35.7 70.2 35.9 70.5 36.4 70.5C37.6 70.5 38.9 70.5 40.1 70.5C40.7 70.5 41 70.3 41 69.7C41.1 68.7 41.3 67.7 41.3 66.7C41.4 66 41.7 65.5 42.4 65.3C42.9 65.1 43.5 64.9 44 64.6C44.7 64.2 45.3 64.3 46 64.8C46.7 65.4 47.6 66 48.3 66.6C48.7 66.9 49 67 49.4 66.5C50.3 65.6 51.1 64.7 52 63.9C52.4 63.5 52.4 63.2 52.1 62.8C51.4 61.9 50.7 61.1 50.1 60.2C49.8 59.8 49.7 59.3 49.9 58.8C50.2 58.1 50.5 57.4 50.8 56.7C51 56.2 51.3 55.9 51.9 55.8C53 55.7 54.1 55.5 55.2 55.4C55.7 55.3 56 55.1 56 54.6C56 53.4 56 52.2 56 50.9C56 50.3 55.8 50 55.2 50C54.2 49.9 53.2 49.8 52.1 49.6C51.4 49.5 51 49.2 50.8 48.5C50.6 47.9 50.3 47.2 50 46.6C49.7 46 49.8 45.6 50.2 45.1C50.9 44.3 51.5 43.4 52.2 42.5C52.2 42.7 52.3 42.5 52.4 42.3ZM29 37C26.3 31.8 25.5 26.4 26.6 20.6C25.9 21.2 25.3 21.6 24.8 22C24.3 22.5 23.7 22.5 23.1 22.2C22.6 21.9 22.1 21.7 21.6 21.6C20.9 21.4 20.6 21 20.6 20.3C20.5 19.4 20.4 18.5 20.3 17.6C20.3 17.2 20.1 17 19.6 17C18.5 17 17.4 17 16.4 17C15.9 17 15.7 17.2 15.7 17.7C15.6 18.6 15.5 19.6 15.4 20.5C15.3 21.1 15 21.5 14.5 21.7C13.9 21.9 13.3 22.1 12.8 22.4C12.3 22.7 11.8 22.6 11.3 22.3C10.6 21.7 9.8 21.2 9.1 20.6C8.7 20.3 8.5 20.3 8.1 20.6C7.4 21.4 6.6 22.1 5.8 22.9C5.5 23.2 5.5 23.5 5.8 23.8C6.4 24.5 6.9 25.3 7.5 26C7.9 26.5 8 27 7.7 27.7C7.4 28.2 7.2 28.7 7.1 29.2C6.9 29.9 6.4 30.2 5.8 30.3C4.9 30.4 4 30.5 3.2 30.6C2.8 30.6 2.5 30.8 2.6 31.3C2.6 32.4 2.6 33.5 2.6 34.6C2.6 35.1 2.8 35.2 3.2 35.3C4.2 35.4 5.1 35.6 6.1 35.7C6.7 35.8 7 36.1 7.2 36.6C7.4 37.2 7.7 37.8 7.9 38.4C8.1 38.9 8.1 39.4 7.8 39.8C7.2 40.5 6.7 41.3 6.1 42C5.8 42.4 5.7 42.7 6.1 43C6.9 43.7 7.6 44.5 8.3 45.2C8.6 45.6 8.9 45.5 9.3 45.2C10 44.6 10.8 44.1 11.5 43.5C12 43.1 12.4 43.1 13 43.3C13.6 43.6 14.1 43.8 14.7 44C15.3 44.2 15.6 44.5 15.6 45.1C15.7 46 15.9 47 15.9 47.9C15.9 48.4 16.2 48.6 16.7 48.6C17.7 48.6 18.8 48.6 19.8 48.6C20.4 48.6 20.5 48.4 20.6 47.9C20.7 47 20.8 46.1 20.9 45.3C21 44.7 21.3 44.3 21.9 44.1C22.1 44 22.3 43.9 22.5 43.9C22 42.5 22.4 41.4 23.4 40.4C24.1 39.7 24.9 39 25.5 38.3C26.2 36.7 27.4 36.2 29 37ZM22.3 47.8C22.4 47.9 22.4 48 22.5 48C22.9 47.8 23.5 47.7 23.8 47.3C24.2 46.8 24.4 46.1 23.7 45.6C23.5 45.5 23.3 45.3 23.1 45.4C22.9 45.5 22.6 45.7 22.5 45.9C22.5 46.5 22.4 47.2 22.3 47.8Z" fill="#333333"/>
<path d="M54.8 41.9001C54.2 41.1001 53.8 40.4001 53.2 39.8001C52.4 38.9001 51.6 38.2001 50.8 37.3001C49.7 36.2001 48.3 36.2001 47.1 37.1001C46.4 37.6001 45.8 38.1001 45.2 38.6001C44.6 39.1001 43.5 38.6001 43.3 37.9001C43.2 37.0001 43.1 36.2001 43 35.3001C42.8 34.0001 41.9 33.1001 40.7 33.0001C39.1 32.9001 37.4 33.0001 35.8 33.0001C35.5 33.0001 35.2 33.1001 34.7 33.3001C34.3 32.0001 33.7 30.8001 33.4 29.5001C31 19.8001 37.2 10.3001 47.1 8.60009C56.5 6.90009 65.7 13.6001 67 23.0001C67.5 26.8001 66.9 30.3001 65.1 33.7001C65.1 33.8001 65 33.9001 65 34.0001C64.7 34.7001 64.8 35.3001 65.4 35.6001C66 35.9001 66.6 35.7001 66.9 35.0001C67.6 33.3001 68.4 31.7001 68.8 29.9001C71.3 19.3001 64.7 9.00009 54 6.60009C43.6 4.30009 32.9 11.4001 31 22.0001C30.2 26.6001 30.9 30.9001 33.1 35.0001C33.2 35.3001 33.3 35.6001 33.3 35.9001C33.2 36.7001 33.1 37.5001 33 38.3001C33 38.4001 32.9 38.4001 32.9 38.6001C32.7 38.4001 32.5 38.3001 32.4 38.2001C29.5 34.1001 28 29.5001 28.4 24.4001C28.9 16.6001 32.5 10.6001 39.3 6.70009C52.4 -0.99991 69.3 7.20009 71.5 22.2001C73.3 34.2001 65.2 45.1001 53.2 46.9001C52.9 46.9001 52.7 46.8001 52.4 46.7001C52.5 46.4001 52.5 46.1001 52.6 45.8001C53.2 44.8001 54.1 44.3001 55.2 44.0001C58.5 43.1001 61.4 41.4001 63.8 38.9001C64.4 38.3001 64.5 37.8001 64.1 37.3001C63.7 36.7001 62.9 36.7001 62.3 37.4001C60.5 39.2001 58.4 40.6001 55.9 41.5001C55.5 41.7001 55 41.8001 54.8 41.9001ZM48.8 21.8001C48.7 21.9001 48.6 21.9001 48.5 22.0001C46.3 23.0001 45.6 25.0001 46.5 27.3001C46.6 27.5001 46.5 27.9001 46.4 28.0001C45.6 29.0001 44.7 29.9001 43.9 30.8001C43.4 31.4001 43.3 32.0001 43.8 32.5001C44.3 33.0001 44.9 32.9001 45.5 32.3001C46.4 31.4001 47.2 30.4001 48.1 29.5001C48.3 29.3001 48.6 29.2001 48.9 29.3001C50.9 29.7001 52.8 28.8001 53.4 26.9001C54.1 25.1001 53.3 23.1001 51.4 22.2001C51.1 21.9001 51 21.7001 51 21.3001C51 19.0001 51 16.7001 51 14.5001C51 14.2001 51 13.9001 50.9 13.7001C50.7 13.2001 50.3 13.0001 49.8 13.0001C49.3 13.1001 49 13.4001 48.9 13.9001C48.9 14.2001 48.9 14.4001 48.9 14.7001C48.8 17.0001 48.8 19.4001 48.8 21.8001Z" fill="white"/>
<path d="M52.4 42.3C52.3 42.5 52.2 42.7 52.1 42.9C51.4 43.8 50.8 44.6 50.1 45.5C49.7 46 49.7 46.5 49.9 47C50.2 47.6 50.5 48.2 50.7 48.9C50.9 49.6 51.3 49.9 52 50C53 50.1 54 50.3 55.1 50.4C55.7 50.5 55.9 50.7 55.9 51.3C55.9 52.5 55.9 53.7 55.9 55C55.9 55.5 55.7 55.8 55.1 55.8C54 55.9 52.9 56.1 51.8 56.2C51.2 56.3 50.9 56.6 50.7 57.1C50.4 57.8 50.2 58.5 49.8 59.2C49.6 59.7 49.6 60.2 50 60.6C50.7 61.5 51.3 62.4 52 63.2C52.3 63.6 52.3 63.9 51.9 64.3C51 65.2 50.1 66 49.3 66.9C48.9 67.3 48.6 67.3 48.2 67C47.4 66.4 46.6 65.8 45.9 65.2C45.3 64.7 44.7 64.5 43.9 65C43.4 65.3 42.9 65.5 42.3 65.7C41.6 65.9 41.2 66.4 41.2 67.1C41.1 68.1 41 69.1 40.9 70.1C40.8 70.7 40.6 70.9 40 70.9C38.8 70.9 37.6 70.9 36.3 70.9C35.7 70.9 35.5 70.7 35.5 70.1C35.4 69 35.2 67.9 35.1 66.8C35 66.2 34.7 65.9 34.2 65.7C33.5 65.4 32.9 65.2 32.2 64.9C31.6 64.6 31.2 64.7 30.7 65.1C29.9 65.8 29 66.4 28.1 67.1C27.7 67.4 27.4 67.4 27 67C26.1 66.1 25.3 65.2 24.4 64.3C24 63.9 24 63.6 24.3 63.2C25 62.4 25.6 61.5 26.3 60.6C26.7 60.1 26.7 59.6 26.5 59.1C26.2 58.5 25.9 57.8 25.7 57.2C25.5 56.6 25.1 56.3 24.5 56.2C23.5 56.1 22.5 55.9 21.4 55.8C20.7 55.7 20.5 55.5 20.5 54.8C20.5 53.6 20.5 52.4 20.5 51.3C20.5 50.7 20.7 50.4 21.3 50.4C22.3 50.3 23.3 50.2 24.2 50.1C24.9 50 25.4 49.7 25.7 48.9C25.9 48.3 26.2 47.7 26.4 47.1C26.7 46.5 26.6 46.1 26.2 45.6C25.5 44.8 24.9 43.9 24.2 43C23.9 42.6 23.9 42.3 24.3 41.9C25.2 41 26.1 40.2 26.9 39.3C27.3 38.9 27.6 38.9 28 39.2C28.8 39.9 29.7 40.5 30.6 41.2C31.1 41.6 31.6 41.6 32.1 41.4C32.7 41.1 33.4 40.8 34 40.6C34.6 40.4 34.9 40 35 39.4C35.1 38.4 35.3 37.3 35.4 36.3C35.5 35.8 35.7 35.5 36.2 35.5C37.4 35.5 38.7 35.5 39.9 35.5C40.4 35.5 40.7 35.7 40.7 36.3C40.8 37.3 41 38.3 41.1 39.3C41.2 40.1 41.5 40.5 42.3 40.8C42.9 41 43.5 41.3 44.1 41.6C44.7 41.9 45.1 41.8 45.6 41.4C46.4 40.7 47.3 40.1 48.2 39.4C48.6 39.1 48.9 39 49.3 39.4C50.2 40.3 51.1 41.2 52 42.2C52.2 41.9 52.3 42.1 52.4 42.3ZM46.4 52.9C46.3 52.4 46.3 51.9 46.2 51.4C45.3 47 41.1 44.1 36.8 44.9C32.4 45.7 29.5 49.9 30.2 54.4C30.5 55.9 31.1 57.3 32.2 58.4C32.7 58.9 33.3 59 33.7 58.6C34.2 58.2 34.2 57.6 33.8 57.1C33.7 56.9 33.5 56.8 33.4 56.6C31.6 54.2 31.8 50.9 33.9 48.8C36 46.7 39.3 46.4 41.7 48.2C44.1 49.9 44.8 53.2 43.5 55.8C42.3 58.1 39.9 59.3 37.3 59C36.3 58.9 35.8 59.1 35.7 59.8C35.6 60.5 36 61 37 61.1C42 61.7 46.3 57.9 46.4 52.9Z" fill="white"/>
<path d="M29 37.0001C27.3 36.2001 26.1 36.7001 25.1 37.9001C24.4 38.7001 23.7 39.4001 23 40.0001C22 41.0001 21.5 42.1001 22.1 43.5001C21.9 43.6001 21.7 43.7001 21.5 43.7001C20.9 43.9001 20.6 44.3001 20.5 44.9001C20.4 45.8001 20.3 46.7001 20.2 47.5001C20.2 48.0001 20 48.3001 19.4 48.2001C18.4 48.2001 17.3 48.2001 16.3 48.2001C15.8 48.2001 15.6 48.1001 15.5 47.5001C15.4 46.6001 15.3 45.6001 15.2 44.7001C15.1 44.1001 14.8 43.8001 14.3 43.6001C13.7 43.4001 13.1 43.2001 12.6 42.9001C12.1 42.6001 11.6 42.7001 11.1 43.1001C10.4 43.7001 9.60001 44.2001 8.90001 44.8001C8.50001 45.1001 8.30001 45.1001 7.90001 44.8001C7.20001 44.0001 6.40001 43.3001 5.70001 42.6001C5.30001 42.2001 5.30001 42.0001 5.70001 41.6001C6.30001 40.9001 6.80001 40.1001 7.40001 39.4001C7.80001 39.0001 7.80001 38.5001 7.50001 38.0001C7.20001 37.4001 7.00001 36.8001 6.80001 36.2001C6.50001 35.6001 6.20001 35.3001 5.60001 35.3001C4.60001 35.2001 3.70001 35.0001 2.70001 34.9001C2.30001 34.9001 2.10001 34.7001 2.10001 34.2001C2.10001 33.1001 2.10001 32.0001 2.10001 30.9001C2.10001 30.4001 2.30001 30.3001 2.70001 30.2001C3.60001 30.1001 4.50001 30.0001 5.30001 29.9001C6.00001 29.8001 6.40001 29.5001 6.60001 28.8001C6.80001 28.3001 7.00001 27.8001 7.20001 27.3001C7.50001 26.7001 7.50001 26.2001 7.00001 25.6001C6.40001 24.9001 5.90001 24.1001 5.30001 23.4001C5.00001 23.0001 5.00001 22.8001 5.30001 22.5001C6.10001 21.8001 6.80001 21.0001 7.60001 20.2001C7.90001 19.8001 8.20001 19.9001 8.60001 20.2001C9.30001 20.8001 10.1 21.3001 10.8 21.9001C11.3 22.3001 11.7 22.3001 12.3 22.0001C12.9 21.7001 13.4 21.5001 14 21.3001C14.6 21.1001 14.9 20.7001 14.9 20.1001C15 19.2001 15.2 18.2001 15.2 17.3001C15.2 16.8001 15.4 16.6001 15.9 16.6001C17 16.6001 18.1 16.6001 19.1 16.6001C19.6 16.6001 19.7 16.8001 19.8 17.2001C19.9 18.1001 20 19.0001 20.1 19.9001C20.2 20.6001 20.5 21.0001 21.1 21.2001C21.6 21.4001 22.1 21.6001 22.6 21.8001C23.2 22.1001 23.8 22.1001 24.3 21.6001C24.8 21.2001 25.4 20.7001 26.1 20.2001C25.5 26.4001 26.3 31.7001 29 37.0001ZM25.3 32.6001C25.3 28.6001 22 25.2001 18.1 25.2001C17.4 25.2001 16.9 25.6001 16.8 26.2001C16.8 26.8001 17.2 27.3001 17.9 27.4001C18.2 27.4001 18.5 27.4001 18.8 27.5001C21.1 27.9001 22.9 29.9001 23 32.2001C23.1 34.7001 21.7 36.9001 19.4 37.6001C17.1 38.3001 14.6 37.4001 13.3 35.3001C12 33.2001 12.4 30.6001 14.1 28.9001C14.3 28.7001 14.5 28.6001 14.6 28.4001C15.1 27.8001 14.7 26.8001 13.9 26.7001C13.5 26.7001 13 26.9001 12.7 27.2001C10.2 29.5001 9.60001 33.2001 11.3 36.2001C13 39.2001 16.4 40.6001 19.6 39.8001C23 39.0001 25.3 36.0001 25.3 32.6001Z" fill="white"/>
<path d="M22.3 47.8C22.4 47.2 22.4 46.6 22.6 46C22.7 45.8 22.9 45.6 23.2 45.5C23.3 45.4 23.6 45.6 23.8 45.7C24.5 46.2 24.3 46.9 23.9 47.4C23.6 47.7 23 47.9 22.6 48.1C22.5 47.9 22.4 47.9 22.3 47.8Z" fill="white"/>
<path d="M48.8 21.8C48.8 19.4 48.8 17 48.8 14.6C48.8 14.3 48.8 14.1 48.8 13.8C48.9 13.3 49.2 13 49.7 12.9C50.2 12.8 50.7 13 50.8 13.6C50.9 13.9 50.9 14.2 50.9 14.4C50.9 16.7 50.9 19 50.9 21.2C50.9 21.6 51 21.8 51.4 22C53.2 22.9 54.1 24.9 53.4 26.7C52.7 28.5 50.9 29.5 48.9 29.1C48.7 29 48.3 29.2 48.1 29.3C47.2 30.2 46.4 31.2 45.5 32.1C44.9 32.7 44.3 32.8 43.8 32.3C43.3 31.9 43.3 31.2 43.9 30.6C44.7 29.7 45.6 28.7 46.4 27.8C46.5 27.6 46.6 27.3 46.5 27.1C45.6 24.9 46.3 22.9 48.5 21.8C48.6 21.9 48.7 21.9 48.8 21.8ZM49.9 23.9C49 23.9 48.3 24.6 48.3 25.5C48.3 26.4 49 27.1 49.9 27.1C50.7 27.1 51.5 26.4 51.5 25.5C51.5 24.6 50.8 23.9 49.9 23.9Z" fill="#333333"/>
<path d="M46.4 52.9C46.4 57.9 42 61.7 37.1 61C36.1 60.9 35.6 60.4 35.8 59.7C35.9 59 36.4 58.7 37.4 58.9C39.9 59.3 42.4 58 43.6 55.7C45 53.1 44.2 49.8 41.8 48.1C39.4 46.3 36.1 46.6 34 48.7C31.9 50.8 31.7 54.1 33.5 56.5C33.6 56.7 33.8 56.8 33.9 57C34.3 57.6 34.2 58.2 33.8 58.5C33.3 58.9 32.7 58.8 32.3 58.3C31.3 57.1 30.6 55.8 30.3 54.3C29.6 49.8 32.5 45.7 36.9 44.8C41.3 44 45.5 46.9 46.3 51.3C46.3 51.9 46.3 52.4 46.4 52.9Z" fill="#333333"/>
<path d="M25.3 32.6001C25.3 36.0001 23 39.0001 19.8 39.8001C16.5 40.6001 13.1 39.2001 11.5 36.2001C9.9 33.3001 10.4 29.5001 12.9 27.2001C13.2 26.9001 13.7 26.7001 14.1 26.7001C14.9 26.7001 15.2 27.7001 14.8 28.4001C14.7 28.6001 14.5 28.7001 14.3 28.9001C12.6 30.6001 12.3 33.3001 13.5 35.3001C14.8 37.4001 17.3 38.3001 19.6 37.6001C21.9 36.9001 23.4 34.7001 23.2 32.2001C23.1 29.9001 21.3 27.9001 19 27.5001C18.7 27.4001 18.4 27.5001 18.1 27.4001C17.4 27.3001 16.9 26.9001 17 26.2001C17 25.6001 17.5 25.2001 18.3 25.2001C22 25.2001 25.3 28.6001 25.3 32.6001Z" fill="#333333"/>
<path d="M49.9 23.9C50.8 23.9 51.5 24.6 51.4 25.5C51.4 26.4 50.7 27.1 49.8 27.1C48.9 27.1 48.2 26.3 48.2 25.5C48.3 24.6 49.1 23.9 49.9 23.9Z" fill="white"/>
</svg>
