<svg width="74" height="75" viewBox="0 0 74 75" fill="none" xmlns="http://www.w3.org/2000/svg">
<g clip-path="url(#clip0_207_763)">
<path d="M72.9 0.300073C73.2 0.300073 73.6 0.300073 73.9 0.300073C73.9 25.0001 73.9 49.6001 73.9 74.3001C49.2 74.3001 24.6 74.3001 -0.100006 74.3001C-6.10203e-06 49.6001 -6.10203e-06 25.0001 -6.10203e-06 0.300073C0.399994 0.300073 0.799994 0.300073 1.19999 0.300073C0.199994 1.00007 0.199994 1.60007 0.999994 2.40007C3.79999 5.20007 6.49999 7.90007 9.29999 10.7001C9.49999 10.9001 9.69999 11.1001 9.89999 11.2001C10.4 11.6001 10.9 11.5001 11.3 11.1001C11.7 10.7001 11.7 10.2001 11.4 9.70007C11.3 9.50007 11.1 9.40007 11 9.30007C8.19999 6.50007 5.39999 3.70007 2.59999 0.900073C2.39999 0.700073 2.09999 0.500073 1.89999 0.300073C6.39999 0.300073 11 0.300073 15.6 0.300073C15 0.700073 14.8 1.30007 15 2.00007C15.4 3.30007 15.7 4.60007 16.1 5.90007C16.3 6.70007 16.8 7.00007 17.5 6.80007C18.1 6.70007 18.4 6.10007 18.2 5.30007C17.8 4.00007 17.5 2.60007 17.1 1.30007C17 0.900073 16.6 0.500073 16.3 0.200073C30.1 0.300073 44 0.300073 57.8 0.300073C57.5 0.700073 57.1 1.00007 57 1.40007C56.6 2.70007 56.2 4.10007 55.9 5.40007C55.7 6.10007 56 6.70007 56.5 6.90007C57.2 7.10007 57.7 6.80007 57.9 6.00007C58.3 4.70007 58.6 3.40007 59 2.10007C59.3 1.30007 59.2 0.700073 58.5 0.300073C63.1 0.300073 67.6 0.300073 72.2 0.300073C71.9 0.500073 71.7 0.800073 71.4 1.00007C68.6 3.80007 65.9 6.50007 63.1 9.30007C62.9 9.50007 62.7 9.60007 62.6 9.80007C62.3 10.3001 62.3 10.7001 62.7 11.1001C63.1 11.5001 63.5 11.6001 64 11.3001C64.2 11.2001 64.3 11.0001 64.5 10.9001C67.3 8.10007 70.2 5.20007 73 2.40007C73.9 1.60007 73.9 1.00007 72.9 0.300073ZM48.7 64.1001C51.8 64.0001 54.4 62.0001 55.2 58.9001C55.7 57.0001 56.8 55.8001 58.7 55.3001C62.6 54.2001 64.7 50.7001 63.6 46.8001C63.1 44.9001 63.5 43.4001 64.9 42.0001C67.7 39.1001 67.7 35.1001 64.9 32.2001C63.5 30.8001 63.1 29.2001 63.6 27.3001C64.6 23.4001 62.5 19.9001 58.7 18.9001C56.9 18.4001 55.7 17.3001 55.2 15.5001C54.1 11.4001 50.7 9.50007 46.6 10.5001C44.8 11.0001 43.2 10.5001 41.9 9.20007C39 6.30007 35 6.30007 32 9.20007C30.7 10.5001 29.1 10.9001 27.3 10.5001C23.3 9.50007 19.8 11.4001 18.7 15.4001C18.2 17.2001 17.1 18.3001 15.3 18.9001C11.2 20.1001 9.29999 23.4001 10.3 27.5001C10.8 29.3001 10.3 30.8001 9.09999 32.1001C6.19999 35.1001 6.09999 39.0001 9.09999 42.0001C10.4 43.3001 10.8 44.9001 10.3 46.7001C9.29999 50.7001 11.2 54.1001 15.2 55.2001C17.1 55.7001 18.2 56.9001 18.7 58.7001C19.8 62.6001 23.3 64.6001 27.2 63.6001C29.1 63.1001 30.6 63.5001 32 64.9001C34.9 67.8001 38.9 67.8001 41.8 64.9001C43.1 63.6001 44.7 63.1001 46.6 63.6001C47.4 63.9001 48 64.0001 48.7 64.1001ZM1.69999 74.1001C1.89999 74.0001 2.19999 73.8001 2.49999 73.5001C5.39999 70.7001 8.2 67.8001 11.1 65.0001C11.3 64.8001 11.4 64.7001 11.5 64.5001C11.8 64.0001 11.7 63.6001 11.3 63.2001C10.9 62.8001 10.5 62.8001 9.99999 63.0001C9.79999 63.1001 9.59999 63.3001 9.49999 63.5001C6.69999 66.3001 3.89999 69.2001 0.999994 72.0001C0.799994 72.2001 0.699994 72.3001 0.499994 72.5001C0.199994 73.2001 0.699994 74.1001 1.69999 74.1001ZM73.6 72.8001C73.5 72.6001 73.3 72.3001 73 72.0001C70.2 69.1001 67.3 66.3001 64.5 63.4001C64.4 63.3001 64.2 63.1001 64.1 63.0001C63.6 62.7001 63.1 62.8001 62.7 63.2001C62.3 63.6001 62.3 64.1001 62.6 64.5001C62.7 64.7001 62.9 64.8001 63 64.9001C65.8 67.7001 68.7 70.6001 71.5 73.4001C71.7 73.6001 71.8 73.7001 72 73.9001C72.8 74.4001 73.7 73.8001 73.6 72.8001ZM16.1 74.1001C16.5 74.1001 16.9 73.8001 17 73.3001C17.4 71.8001 17.8 70.3001 18.2 68.8001C18.4 68.2001 18 67.7001 17.5 67.5001C16.9 67.3001 16.4 67.6001 16.2 68.2001C15.8 69.7001 15.3 71.3001 14.9 72.8001C14.7 73.5001 15.3 74.1001 16.1 74.1001ZM57 67.4001C56.2 67.4001 55.7 68.0001 55.9 68.7001C56.3 70.3001 56.7 71.8001 57.2 73.3001C57.4 73.9001 58 74.2001 58.5 74.0001C59.1 73.8001 59.4 73.3001 59.2 72.7001C58.8 71.2001 58.4 69.7001 58 68.2001C57.8 67.7001 57.4 67.4001 57 67.4001ZM1.69999 59.8001C3.19999 59.4001 4.79999 58.9001 6.49999 58.4001C6.99999 58.2001 7.19999 57.7001 6.99999 57.1001C6.79999 56.6001 6.39999 56.2001 5.79999 56.4001C4.19999 56.8001 2.59999 57.2001 0.999994 57.7001C0.499994 57.9001 0.299994 58.3001 0.399994 58.9001C0.599994 59.4001 0.999994 59.7001 1.69999 59.8001ZM7.09999 16.7001C6.99999 16.5001 6.69999 16.1001 6.39999 16.0001C4.89999 15.5001 3.29999 15.1001 1.79999 14.7001C1.19999 14.5001 0.699994 14.9001 0.499994 15.5001C0.399994 16.1001 0.599994 16.6001 1.19999 16.7001C2.69999 17.2001 4.29999 17.6001 5.79999 18.0001C6.49999 18.2001 7.09999 17.6001 7.09999 16.7001ZM68.1 56.4001C67.5 56.5001 67.1 56.7001 67 57.3001C66.9 57.9001 67.2 58.3001 67.8 58.5001C69.2 58.9001 70.7 59.3001 72.2 59.7001C73 59.9001 73.5 59.6001 73.7 58.9001C73.8 58.3001 73.5 57.8001 72.8 57.6001C71.4 57.2001 69.9 56.8001 68.5 56.4001C68.3 56.4001 68.2 56.4001 68.1 56.4001ZM73.6 16.0001C73.6 15.0001 73 14.5001 72.3 14.7001C70.8 15.1001 69.2 15.5001 67.7 15.9001C67.1 16.1001 66.8 16.6001 67 17.2001C67.1 17.7001 67.7 18.1001 68.3 18.0001C69.8 17.6001 71.4 17.2001 72.9 16.7001C73.2 16.6001 73.5 16.2001 73.6 16.0001Z" fill="white"/>
<path d="M1.9 0.300049C2.1 0.500049 2.4 0.700049 2.6 0.900049C5.4 3.70005 8.2 6.50005 11 9.40005C11.1 9.50005 11.3 9.70005 11.4 9.80005C11.7 10.3 11.7 10.8 11.3 11.2C10.9 11.6 10.4 11.7 9.9 11.3C9.7 11.1 9.5 10.9 9.3 10.8C6.6 8.00005 3.8 5.20005 1 2.40005C0.2 1.60005 0.2 1.00005 1.2 0.300049C1.4 0.300049 1.6 0.300049 1.9 0.300049Z" fill="#333333"/>
<path d="M72.9 0.300049C73.8 1.00005 73.9 1.60005 73 2.40005C70.2 5.20005 67.3 8.10005 64.5 10.9C64.3 11.1 64.2 11.2 64 11.3C63.5 11.6 63.1 11.5 62.7 11.1C62.3 10.7 62.3 10.2 62.6 9.80005C62.7 9.60005 62.9 9.40005 63.1 9.30005C65.9 6.50005 68.6 3.80005 71.4 1.00005C71.7 0.800049 72 0.500049 72.2 0.300049C72.5 0.300049 72.7 0.300049 72.9 0.300049Z" fill="#333333"/>
<path d="M16.3 0.300049C16.6 0.700049 17 1.00005 17.1 1.40005C17.5 2.70005 17.9 4.10005 18.2 5.40005C18.4 6.20005 18.1 6.70005 17.5 6.90005C16.8 7.10005 16.4 6.70005 16.1 6.00005C15.7 4.70005 15.4 3.30005 15 2.00005C14.8 1.30005 14.9 0.700049 15.6 0.300049C15.8 0.300049 16 0.300049 16.3 0.300049Z" fill="#333333"/>
<path d="M58.5 0.300049C59.1 0.700049 59.3 1.30005 59.1 2.00005C58.7 3.30005 58.4 4.70005 58 6.00005C57.8 6.80005 57.2 7.10005 56.6 6.90005C56 6.70005 55.8 6.20005 56 5.40005C56.4 4.10005 56.7 2.70005 57.1 1.40005C57.2 1.00005 57.6 0.600049 57.9 0.300049C58 0.300049 58.3 0.300049 58.5 0.300049Z" fill="#333333"/>
<path d="M48.7 64.1001C48 64.0001 47.4 63.9001 46.7 63.7001C44.9 63.2001 43.3 63.6001 41.9 65.0001C39 67.9001 35 67.9001 32.1 65.0001C30.7 63.6001 29.1 63.2001 27.3 63.7001C23.4 64.7001 19.9 62.7001 18.8 58.8001C18.3 56.9001 17.1 55.8001 15.3 55.3001C11.4 54.2001 9.39999 50.8001 10.4 46.8001C10.9 45.0001 10.5 43.4001 9.19999 42.1001C6.29999 39.1001 6.29999 35.2001 9.19999 32.2001C10.5 30.9001 10.9 29.3001 10.4 27.6001C9.39999 23.5001 11.3 20.2001 15.4 19.0001C17.2 18.5001 18.3 17.3001 18.8 15.5001C19.9 11.5001 23.3 9.50012 27.4 10.6001C29.2 11.1001 30.8 10.6001 32.1 9.30012C35 6.40012 39.1 6.40012 42 9.30012C43.3 10.6001 44.9 11.0001 46.7 10.6001C50.8 9.60012 54.1 11.5001 55.3 15.6001C55.8 17.4001 57 18.5001 58.8 19.0001C62.7 20.0001 64.8 23.6001 63.7 27.4001C63.2 29.3001 63.6 30.9001 65 32.3001C67.8 35.1001 67.8 39.2001 65 42.1001C63.6 43.5001 63.2 45.0001 63.7 46.9001C64.7 50.8001 62.7 54.3001 58.8 55.4001C56.9 55.9001 55.8 57.1001 55.3 59.0001C54.4 62.1001 51.8 64.1001 48.7 64.1001ZM12.8 45.8001C12.7 46.2001 12.6 46.8001 12.5 47.5001C11.8 50.2001 13.1 52.5001 15.8 53.2001C18.5 53.9001 20.2 55.6001 21 58.4001C21.7 61.1001 24.1 62.4001 26.7 61.7001C29.4 61.0001 31.7 61.6001 33.7 63.6001C35.7 65.6001 38.4 65.6001 40.4 63.6001C42.3 61.7001 44.6 61.1001 47.3 61.8001C50.1 62.5001 52.4 61.2001 53.2 58.4001C53.9 55.8001 55.6 54.1001 58.2 53.4001C61 52.6001 62.4 50.3001 61.6 47.5001C60.9 44.9001 61.5 42.6001 63.4 40.7001C65.4 38.7001 65.4 36.0001 63.4 33.9001C61.5 32.0001 60.9 29.7001 61.6 27.0001C62.3 24.2001 61 21.9001 58.2 21.1001C55.6 20.4001 53.9 18.7001 53.2 16.1001C52.4 13.3001 50.1 11.9001 47.3 12.7001C44.7 13.4001 42.4 12.8001 40.5 10.9001C38.4 8.90012 35.8 8.90012 33.7 10.9001C31.8 12.8001 29.5 13.4001 26.8 12.7001C24 12.0001 21.7 13.3001 20.9 16.1001C20.2 18.7001 18.5 20.4001 15.9 21.1001C13.1 21.9001 11.7 24.2001 12.5 27.0001C13.2 29.6001 12.5 31.9001 10.7 33.8001C10.2 34.3001 9.79999 34.9001 9.49999 35.5001C8.79999 37.4001 9.19999 39.1001 10.7 40.6001C12.1 41.9001 12.8 43.6001 12.8 45.8001Z" fill="#333333"/>
<path d="M1.7 74.1C0.699998 74.1 0.199998 73.2 0.599998 72.5C0.699998 72.3 0.899998 72.2 0.999998 72C3.8 69.2 6.7 66.3 9.5 63.5C9.7 63.3 9.8 63.2 10 63C10.5 62.8 10.9 62.8 11.3 63.2C11.7 63.6 11.7 64 11.5 64.5C11.4 64.7 11.2 64.8 11.1 65C8.3 67.9 5.4 70.7 2.5 73.5C2.3 73.8 1.9 74 1.7 74.1Z" fill="#333333"/>
<path d="M73.6 72.8001C73.6 73.8001 72.7 74.4001 72 74.0001C71.8 73.9001 71.6 73.7001 71.5 73.5001C68.7 70.7001 65.8 67.8001 63 65.0001C62.9 64.9001 62.7 64.7001 62.6 64.6001C62.3 64.1001 62.3 63.7001 62.7 63.3001C63.1 62.9001 63.6 62.8001 64.1 63.1001C64.3 63.2001 64.4 63.3001 64.5 63.5001C67.4 66.4001 70.2 69.2001 73 72.1001C73.3 72.3001 73.5 72.6001 73.6 72.8001Z" fill="#333333"/>
<path d="M16.1 74.1001C15.3 74.1001 14.8 73.5001 15 72.8001C15.4 71.2001 15.8 69.7001 16.3 68.2001C16.5 67.6001 17 67.3001 17.6 67.5001C18.1 67.6001 18.5 68.2001 18.3 68.8001C17.9 70.3001 17.5 71.8001 17.1 73.3001C16.9 73.8001 16.5 74.1001 16.1 74.1001Z" fill="#333333"/>
<path d="M57 67.4C57.5 67.4 57.8 67.7 58 68.2C58.4 69.7 58.8 71.2 59.2 72.7C59.4 73.3 59 73.8 58.5 74C58 74.2 57.4 73.9 57.2 73.3C56.7 71.8 56.3 70.2 55.9 68.7C55.7 68 56.2 67.5 57 67.4Z" fill="#333333"/>
<path d="M1.7 59.8C0.9 59.8 0.5 59.5 0.4 58.9C0.3 58.4 0.5 57.9 1 57.7C2.6 57.2 4.2 56.8 5.8 56.4C6.4 56.3 6.8 56.6 7 57.1C7.2 57.6 7 58.2 6.5 58.4C4.9 58.9 3.2 59.3 1.7 59.8Z" fill="#333333"/>
<path d="M7.09999 16.7001C7.09999 17.7001 6.49999 18.2001 5.79999 18.0001C4.19999 17.6001 2.69999 17.2001 1.19999 16.7001C0.599989 16.5001 0.399989 16.1001 0.499989 15.5001C0.599989 14.9001 1.09999 14.6001 1.79999 14.7001C3.39999 15.1001 4.89999 15.5001 6.39999 16.0001C6.69999 16.1001 6.99999 16.5001 7.09999 16.7001Z" fill="#333333"/>
<path d="M68.1 56.4C68.2 56.4 68.3 56.4 68.4 56.5C69.8 56.9 71.3 57.3 72.7 57.7C73.4 57.9 73.8 58.4 73.6 59C73.4 59.6 72.9 59.9 72.1 59.8C70.6 59.4 69.2 59 67.7 58.6C67.2 58.3 66.9 57.9 67 57.3C67.1 56.7 67.5 56.4 68.1 56.4Z" fill="#333333"/>
<path d="M73.6 16.0001C73.4 16.2001 73.2 16.6001 72.8 16.7001C71.3 17.2001 69.8 17.6001 68.2 18.0001C67.6 18.2001 67.1 17.8001 66.9 17.2001C66.8 16.6001 67 16.1001 67.6 15.9001C69.1 15.5001 70.6 15.0001 72.2 14.7001C73 14.5001 73.7 15.0001 73.6 16.0001Z" fill="#333333"/>
<path d="M12.8 45.8C12.8 43.6 12.1 41.9001 10.7 40.5C9.2 39.1 8.8 37.3 9.5 35.4C9.7 34.8 10.2 34.2001 10.7 33.7001C12.6 31.8001 13.2 29.5 12.5 26.9C11.8 24.1 13.1 21.8 15.9 21C18.5 20.3 20.2 18.6 20.9 16C21.7 13.2 24 11.9 26.8 12.6C29.4 13.3 31.7 12.7 33.7 10.8C35.7 8.80005 38.4 8.80005 40.5 10.8C42.4 12.7 44.7 13.3 47.3 12.6C50.1 11.9 52.5 13.2 53.2 16C53.9 18.6 55.6 20.3 58.2 21C61 21.8 62.3 24.1 61.6 26.9C60.9 29.5 61.5 31.8 63.4 33.8C65.4 35.8 65.4 38.5 63.4 40.6C61.5 42.5 60.9 44.8 61.6 47.4C62.3 50.2 61 52.6 58.2 53.3C55.6 54 53.9 55.7001 53.2 58.3C52.4 61.1 50.1 62.4001 47.3 61.7001C44.7 61 42.4 61.6 40.4 63.5C38.4 65.5 35.7 65.5 33.7 63.5C31.7 61.5 29.4 60.9 26.7 61.6C24 62.3 21.7 61 21 58.3C20.3 55.6 18.6 53.9 15.8 53.1C13.1 52.4 11.8 50 12.5 47.4C12.7 46.9 12.8 46.2001 12.8 45.8ZM13.3 37.1C13.5 38.7 13.6 40.4 13.9 41.9C16.3 53.7 27.2 61.7001 39.3 60.7001C50.9 59.7001 60.2 50 60.7 38.4C61 29.5 57.4 22.4 50 17.4C47 15.3 43.6 14.2 40 13.7C39.2 13.6 38.6 14 38.5 14.6C38.4 15.2 38.9 15.7 39.7 15.8C40.1 15.9 40.5 15.9 40.9 16C53.1 18.4 60.7 30 57.9 42.1C55.5 52.7001 44.8 60.1 34.1 58.4C24.1 56.9 16.7 49.3 15.7 39.2001C14.7 30.2001 20 21.2 28.2 17.6C30.2 16.7 32.3 16.1 34.5 15.9C35.2 15.8 35.6 15.3 35.5 14.7C35.4 14.1 34.9 13.7 34.2 13.8C33.8 13.8 33.4 13.9 33.1 14C21.8 15.7 13.4 25.6 13.3 37.1ZM33.6 36.8C32.3 35.5 31.1 34.2001 29.8 33C28.4 31.6 26.4 31.6 25 33C24 34 23 35 22 36C20.7 37.4 20.6 39.3001 22 40.7001C24.6 43.3 27.2 46 29.9 48.5C31.9 50.5 35 50.4001 37.1 48.5C38 47.7001 38.8 46.8 39.7 46C40.3 45.4001 40.3 44.8 39.9 44.3C39.5 43.8 38.8 43.9 38.2 44.4C37.4 45.2 36.6 46 35.7 46.8C34.4 48 32.6 48.1 31.4 46.8C28.9 44.3 26.4 41.8 23.9 39.3C23.2 38.6 23.2 38 23.9 37.3C24.8 36.4 25.6 35.6 26.5 34.7001C27.3 33.9001 27.8 33.9001 28.6 34.7001C29.9 36 31.3 37.4001 32.6 38.7001C33.5 39.6 33.9 39.6 34.8 38.7001C38.5 35 42.2 31.3 45.9 27.6C46.8 26.7 47.3 26.7 48.3 27.6C49 28.3 49.7 29 50.4 29.7C51.4 30.7 51.4 31.1 50.4 32.1C47.6 34.9 44.8 37.7001 42 40.5C41.4 41.1 41.4 41.7001 41.9 42.2001C42.4 42.6001 43 42.6 43.5 42C46.4 39.1 49.3 36.2 52.2 33.3C53.6 31.9 53.6 29.9 52.2 28.5C51.4 27.7001 50.6 26.9 49.9 26.2C48 24.3 46.2 24.3 44.3 26.2C40.7 29.8 37.2 33.3 33.6 36.8Z" fill="white"/>
<path d="M13.3 37.1C13.5 25.6 21.8 15.7 33.1 13.8C33.5 13.7 33.9 13.7 34.2 13.6C34.9 13.5 35.4 13.9 35.5 14.5C35.6 15.1 35.2 15.6 34.5 15.7C32.3 16 30.2 16.6 28.2 17.4C19.9 21 14.7 30 15.7 39C16.8 49.1001 24.1 56.8 34.1 58.3C44.8 59.9 55.5 52.6001 57.9 42C60.7 29.9 53.1 18.3 40.9 15.9C40.5 15.8 40.1 15.8 39.7 15.7C38.9 15.6 38.4 15.1 38.5 14.5C38.6 13.8 39.1 13.5 40 13.6C43.6 14.1 47 15.2 50 17.3C57.4 22.3 61 29.4 60.7 38.3C60.3 49.9 50.9 59.6 39.3 60.6C27.2 61.7 16.4 53.7001 13.9 41.8C13.6 40.4 13.5 38.7 13.3 37.1Z" fill="#333333"/>
<path d="M33.6 36.8C37.2 33.2 40.7 29.7 44.2 26.2C46.1 24.3 47.9 24.3 49.8 26.2C50.6 27 51.4 27.8 52.1 28.5C53.5 30 53.5 31.9 52.1 33.3C49.2 36.2 46.3 39.1 43.4 42C42.8 42.6 42.2 42.6 41.8 42.2C41.3 41.7 41.3 41.1 41.9 40.5C44.7 37.7 47.5 34.9 50.3 32.1C51.3 31.1 51.3 30.7 50.3 29.7C49.6 29 48.9 28.3 48.2 27.6C47.3 26.7 46.8 26.7 45.8 27.6C42.1 31.3 38.4 35 34.7 38.7C33.8 39.6 33.4 39.6 32.5 38.7C31.2 37.4 29.8 36 28.5 34.7C27.7 33.9 27.2 33.9 26.4 34.7C25.5 35.6 24.7 36.4 23.8 37.3C23.1 38 23.1 38.6 23.8 39.3C26.3 41.8 28.8 44.3 31.3 46.8C32.6 48 34.3 48 35.6 46.8C36.4 46 37.2 45.2 38.1 44.4C38.7 43.8 39.4 43.8 39.8 44.3C40.2 44.8 40.2 45.4 39.6 46C38.8 46.9 37.9 47.7 37 48.5C34.9 50.5 31.9 50.5 29.8 48.5C27.1 45.9 24.5 43.3 21.9 40.7C20.6 39.4 20.6 37.4 21.9 36C22.9 35 23.9 34 24.9 33C26.3 31.6 28.3 31.7 29.7 33C31 34.3 32.3 35.5 33.6 36.8Z" fill="#333333"/>
</g>
<defs>
<clipPath id="clip0_207_763">
<rect width="74" height="74" fill="white" transform="translate(0 0.300049)"/>
</clipPath>
</defs>
</svg>
