<svg width="74" height="75" viewBox="0 0 74 75" fill="none" xmlns="http://www.w3.org/2000/svg">
<g clip-path="url(#clip0_207_794)">
<path d="M74 22.1C74 27 74 31.8001 74 36.7001C73.6 35.3 72.7 34.5 71.3 34.1C70.9 34 70.5 33.8 70.2 33.6C67.5 32.5 64.8 31.4 62.1 30.3C61.6 30.1 61.1 30.1 60.8 30.5C60.6 30.8 60.4 31.3 60.5 31.5C60.6 31.8 61 32.2 61.4 32.3C64.5 33.6 67.7 34.8 70.8 36.1C71.3 36.3 71.8 36.5 71.8 37.2001C71.8 37.9001 71.3 38.1 70.8 38.3C60.6 42.4 50.4 46.5 40.2 50.6C38.1 51.4 36.1 51.4 34 50.6C23.7 46.5 13.5 42.4 3.3 38.3C2.8 38.1 2.4 37.9 2.4 37.3C2.4 36.7001 2.8 36.5 3.3 36.3C6.5 35 9.7 33.7 12.8 32.4C13.6 32.1 13.9 31.5 13.6 30.9C13.3 30.3 12.8 30.1 12 30.4C8.8 31.7 5.5 33 2.3 34.3C1 34.8 0.200002 35.8 0.200002 37.3C0.200002 38.7001 1 39.7001 2.4 40.3C12.7 44.5 23.1 48.6 33.4 52.8C35.9 53.8 38.4 53.8 40.8 52.8C51 48.7001 61.1 44.6 71.3 40.5C72.6 40 73.6 39.2001 74 37.8C74 42.7001 74 47.5 74 52.4C73.5 51 72.5 50.2001 71.2 49.8C70.5 49.6 69.9 49.3 69.2 49C66.8 48.1 64.5 47.1001 62.1 46.2001C61.4 45.9001 60.8 46.2001 60.6 46.8C60.4 47.4 60.6 47.9001 61.3 48.2001C61.5 48.3 61.6 48.3 61.8 48.4C64.8 49.6 67.9 50.8 70.9 52.1C71.4 52.3 71.9 52.5 71.9 53.2001C71.9 53.8 71.4 54.1 70.9 54.3C60.5 58.2001 50.2 62.4 40 66.5C38.1 67.3 36.1 67.3 34.2 66.5C23.9 62.3 13.6 58.2001 3.2 54C2.7 53.8 2.3 53.6 2.3 53C2.3 52.4001 2.7 52.1 3.2 51.9C5.1 51.3 7 50.5 8.8 49.7001C10.2 49.1001 11.6 48.6 12.9 48C13.5 47.7001 13.7 47.1 13.5 46.6C13.3 46.1 12.7 45.8 12.1 46C12 46 11.8 46.1001 11.7 46.2001C8.6 47.5 5.5 48.7001 2.4 50C0.900002 50.6 0.100002 51.7 0.100002 53.1C0.100002 54.5 0.900002 55.5 2.4 56.1C12.6 60.2 22.7 64.3 32.9 68.4C35.7 69.5 38.4 69.5 41.2 68.4C51.2 64.3 61.2 60.3 71.2 56.3C72.5 55.8 73.5 55.1001 73.9 53.7001C73.9 60.6001 73.9 67.4 73.9 74.3C49.2 74.3 24.6 74.3 -0.0999985 74.3C1.52737e-06 49.6 1.52737e-06 25 1.52737e-06 0.300049C24.7 0.300049 49.3 0.300049 74 0.300049C74 7.10005 74 13.9 74 20.8C73.6 19.6 72.9 18.8 71.7 18.3C61.3 14.2 51 10 40.7 5.90005C38.2 4.90005 35.7 4.90005 33.2 5.90005C25.6 9.00005 17.9 12.1 10.2 15.2C7.7 16.2 5 17.3 2.4 18.3C1.4 18.7 0.600002 19.3 0.300002 20.4C-0.199998 22.1 0.600002 23.6 2.4 24.4C8.3 26.8 14.3 29.2 20.2 31.6C20.7 31.8 21.2 31.9 21.7 31.9C32 31.9 42.2 31.9 52.5 31.9C53 31.9 53.6 31.8 54 31.6C59.7 29.3 65.5 27 71.2 24.7C72.5 24.1 73.5 23.4 74 22.1ZM12.1 37.2001C12.1 36.6001 11.6 36.1 11 36.1C10.4 36.1 10 36.6 9.9 37.1C9.9 37.7 10.4 38.2001 11 38.2001C11.6 38.3 12.1 37.8 12.1 37.2001ZM64.1 37.2001C64.1 36.6001 63.6 36.1001 63 36.2001C62.4 36.2001 62 36.7001 62 37.3C62 37.9 62.5 38.4 63.1 38.4C63.7 38.3 64.2 37.8 64.1 37.2001ZM37.1 44.1C37.7 44.1 38.2 43.6 38.2 43C38.2 42.4001 37.7 42 37.1 42C36.5 42 36 42.4001 36 43C36 43.6 36.4 44.1 37.1 44.1ZM38.1 48.7001C38.1 48.1001 37.6 47.7 37.1 47.6C36.5 47.6 36 48.1001 36 48.7001C36 49.3 36.5 49.8 37 49.8C37.6 49.8 38.1 49.3 38.1 48.7001ZM17.5 32.8C16.9 32.8 16.4 33.3 16.4 33.9C16.4 34.5 16.9 35 17.5 34.9C18.1 34.9 18.5 34.4 18.5 33.8C18.6 33.3 18.1 32.8 17.5 32.8ZM44.6 33.9C44.6 33.3 44.1 32.8 43.5 32.8C42.9 32.8 42.5 33.3 42.5 33.9C42.5 34.5 43 35 43.6 35C44.2 34.9001 44.6 34.4 44.6 33.9ZM57.6 33.9C57.6 33.3 57.1 32.8 56.5 32.8C55.9 32.8 55.4 33.3 55.4 33.9C55.4 34.5 55.9 34.9 56.5 34.9C57.1 35 57.6 34.5 57.6 33.9ZM37.1 38.3C37.7 38.3 38.2 37.8 38.1 37.2001C38.1 36.6001 37.6 36.2001 37 36.2001C36.4 36.2001 35.9 36.7001 36 37.3C36 37.9 36.5 38.3 37.1 38.3ZM18.6 39.6C18.6 39 18.1 38.5 17.5 38.5C16.9 38.5 16.4 39 16.4 39.6C16.4 40.2 16.9 40.6 17.5 40.6C18.1 40.7 18.6 40.2 18.6 39.6ZM57.6 39.6C57.6 39 57.1 38.5 56.5 38.5C55.9 38.5 55.4 39 55.4 39.6C55.4 40.2 55.9 40.6 56.5 40.6C57.1 40.7 57.6 40.2 57.6 39.6ZM31.6 33.9C31.6 33.3 31.1 32.9 30.5 32.8C29.9 32.8 29.4 33.3 29.4 33.9C29.4 34.5 29.9 34.9 30.5 34.9C31.2 35 31.6 34.5 31.6 33.9ZM25.1 37.2001C25.1 36.6001 24.6 36.2001 24 36.2001C23.4 36.2001 22.9 36.7001 22.9 37.3C22.9 37.9 23.4 38.4 24 38.4C24.6 38.3 25.1 37.8 25.1 37.2001ZM50 38.3C50.6 38.3 51.1 37.8 51.1 37.2001C51.1 36.6001 50.6 36.2001 50 36.2001C49.4 36.2001 48.9 36.6001 48.9 37.2001C49 37.8 49.4 38.3 50 38.3ZM30.6 40.7001C31.2 40.7001 31.7 40.2 31.6 39.6C31.6 39 31.1 38.6 30.5 38.6C29.9 38.6 29.4 39.1001 29.4 39.7001C29.4 40.2001 30 40.7001 30.6 40.7001ZM30.5 44.3C29.9 44.3 29.4 44.9001 29.5 45.5C29.5 46.1 30 46.5 30.6 46.5C31.2 46.5 31.7 46 31.6 45.4C31.6 44.8 31.1 44.3 30.5 44.3ZM43.5 44.3C42.9 44.3 42.4 44.8 42.5 45.5C42.5 46.1 43 46.5 43.6 46.5C44.2 46.5 44.6 46 44.7 45.4C44.6 44.8 44.1 44.3 43.5 44.3ZM43.6 40.7001C44.2 40.7001 44.7 40.2 44.7 39.6C44.7 39 44.2 38.5 43.6 38.5C43 38.5 42.5 39 42.6 39.6C42.5 40.3 43 40.7001 43.6 40.7001ZM25.1 43C25.1 42.4001 24.7 42 24.1 41.9C23.5 41.9 23 42.4001 23 43C23 43.6 23.5 44.1 24.1 44.1C24.6 44.1 25.1 43.6 25.1 43ZM51.1 42.9C51.1 42.3 50.6 41.8 49.9 41.9C49.3 41.9 48.9 42.4001 48.9 43C48.9 43.6 49.4 44 50 44C50.6 44.1 51.2 43.5 51.1 42.9Z" fill="white"/>
<path d="M74 22.1C73.5 23.5 72.5 24.2 71.2 24.7C65.4 26.9 59.7 29.3 54 31.6C53.5 31.8 53 31.9 52.5 31.9C42.2 31.9 32 31.9 21.7 31.9C21.2 31.9 20.7 31.8 20.2 31.6C14.3 29.2 8.3 26.8 2.4 24.4C0.600003 23.7 -0.199997 22.1 0.300003 20.4C0.600003 19.3 1.4 18.7 2.4 18.3C5 17.3 7.7 16.2 10.3 15.1C18 12 25.6 8.90003 33.3 5.80003C35.8 4.80003 38.3 4.70003 40.8 5.80003C51 10 61.3 14.2 71.6 18.3C72.8 18.8 73.5 19.6 73.9 20.8C74 21.2 74 21.6 74 22.1ZM71.8 21.4C71.8 20.8 71.4 20.5 70.9 20.3C60.6 16.2 50.4 12 40.1 7.90003C38.1 7.10003 36 7.10003 34 7.90003C23.8 12.1 13.6 16.2 3.4 20.3C2.9 20.5 2.4 20.7 2.4 21.4C2.4 22.1 2.9 22.3 3.4 22.5C9.1 24.8 14.9 27.1 20.6 29.4C20.9 29.5 21.4 29.5 21.7 29.4C25.5 27.9 29.4 26.4 33.2 24.8C35.9 23.7 38.5 23.7 41.1 24.8C44.9 26.4 48.7 27.9 52.5 29.4C52.9 29.5 53.4 29.6 53.7 29.4C56.2 28.4 58.6 27.4 61 26.5C64.3 25.2 67.6 23.8 70.9 22.5C71.4 22.2 71.7 22 71.8 21.4ZM47.1 29.7V29.6C44.7 28.6 42.3 27.7 39.9 26.7C38 25.9 36.1 26 34.2 26.7C32 27.6 29.7 28.5 27.5 29.4C27.4 29.5 27.3 29.5 27.1 29.7C33.7 29.7 40.4 29.7 47.1 29.7Z" fill="#333333"/>
<path d="M74 37.8C73.6 39.2 72.6 39.9 71.3 40.5C61.1 44.6 51 48.7 40.8 52.8C38.3 53.8 35.8 53.8 33.4 52.8C23.1 48.6 12.7 44.5 2.4 40.3C1 39.7 0.200005 38.7 0.200005 37.3C0.200005 35.8 1 34.9 2.3 34.3C5.5 33 8.8 31.7 12 30.4C12.7 30.1 13.3 30.3 13.6 30.9C13.9 31.5 13.6 32.1 12.8 32.4C9.60001 33.7 6.4 35 3.3 36.3C2.8 36.5 2.4 36.7 2.4 37.3C2.4 37.9 2.8 38.1 3.3 38.3C13.5 42.4 23.8 46.5 34 50.7C36.1 51.5 38.1 51.5 40.2 50.7C50.4 46.6 60.6 42.5 70.8 38.4C71.3 38.2 71.8 38 71.8 37.3C71.8 36.7 71.3 36.4 70.8 36.2C67.7 34.9 64.5 33.7 61.4 32.4C61 32.2 60.6 31.9 60.5 31.6C60.4 31.3 60.6 30.8 60.8 30.6C61.1 30.2 61.6 30.2 62.1 30.4C64.8 31.5 67.5 32.6 70.2 33.7C70.6 33.9 70.9 34 71.3 34.2C72.7 34.6 73.6 35.4 74 36.8C74 37 74 37.4 74 37.8Z" fill="#333333"/>
<path d="M74 53.6001C73.6 55.0001 72.6 55.7001 71.3 56.2001C61.3 60.2001 51.3 64.2001 41.3 68.3001C38.5 69.4001 35.8 69.4001 33 68.3001C22.9 64.2001 12.7 60.1001 2.5 56.0001C1 55.4001 0.200005 54.4001 0.200005 53.0001C0.200005 51.6001 1 50.5001 2.5 49.9001C5.6 48.6001 8.7 47.4001 11.8 46.1001C11.9 46.0001 12.1 46.0001 12.2 45.9001C12.8 45.7001 13.4 45.9001 13.6 46.5001C13.8 47.1001 13.6 47.6001 13 47.9001C11.6 48.5001 10.3 49.0001 8.9 49.6001C7 50.5001 5.1 51.3001 3.2 52.0001C2.7 52.2001 2.3 52.4001 2.3 53.1001C2.3 53.7001 2.7 53.9001 3.2 54.1001C13.5 58.3001 23.8 62.4001 34.2 66.6001C36.1 67.4001 38.1 67.4001 40 66.6001C50.3 62.5001 60.6 58.3001 70.8 54.2001C71.3 54.0001 71.8 53.8001 71.8 53.1001C71.8 52.4001 71.3 52.2001 70.8 52.0001C67.8 50.8001 64.7 49.6001 61.7 48.3001C61.5 48.2001 61.4 48.2001 61.2 48.1001C60.5 47.8001 60.3 47.2001 60.5 46.7001C60.7 46.1001 61.3 45.9001 62 46.1001C64.4 47.0001 66.7 48.0001 69.1 48.9001C69.8 49.2001 70.4 49.5001 71.1 49.7001C72.4 50.1001 73.5 50.9001 73.9 52.3001C74 52.8001 74 53.2001 74 53.6001Z" fill="#333333"/>
<path d="M12.1 37.2001C12.1 37.8001 11.6 38.3001 11 38.3001C10.4 38.3001 9.9 37.8001 9.9 37.2001C9.9 36.6001 10.4 36.2001 11 36.2001C11.6 36.1001 12.1 36.6001 12.1 37.2001Z" fill="#333333"/>
<path d="M64.1 37.2001C64.1 37.8001 63.6 38.3001 63 38.3001C62.4 38.3001 61.9 37.8001 61.9 37.2001C61.9 36.6001 62.4 36.2001 62.9 36.1001C63.6 36.1001 64.1 36.6001 64.1 37.2001Z" fill="#333333"/>
<path d="M37.1 44.1C36.5 44.1 36 43.6 36 43C36 42.4 36.5 42 37.1 42C37.7 42 38.2 42.4 38.2 43C38.1 43.5 37.7 44.1 37.1 44.1Z" fill="#333333"/>
<path d="M38.1 48.7001C38.1 49.3001 37.6 49.8001 37 49.8001C36.4 49.8001 36 49.3001 36 48.7001C36 48.1001 36.5 47.6001 37.1 47.6001C37.7 47.7001 38.1 48.1001 38.1 48.7001Z" fill="#333333"/>
<path d="M17.5 32.8C18.1 32.8 18.6 33.3 18.6 33.9C18.6 34.5 18.2 34.9 17.6 35C17 35 16.5 34.6 16.5 34C16.4 33.3 16.9 32.8 17.5 32.8Z" fill="#333333"/>
<path d="M44.6 33.9C44.6 34.5 44.1 35 43.6 35C43 35 42.5 34.6 42.5 33.9C42.5 33.3 42.9 32.8 43.5 32.8C44.1 32.8 44.6 33.3 44.6 33.9Z" fill="#333333"/>
<path d="M57.6 33.9C57.6 34.5 57.1 35 56.5 35C55.9 35 55.5 34.6 55.4 34C55.4 33.4 55.8 32.9 56.5 32.9C57.1 32.8 57.6 33.3 57.6 33.9Z" fill="#333333"/>
<path d="M37.1 38.3001C36.5 38.3001 36 37.9001 36 37.3001C36 36.7001 36.4 36.2001 37 36.2001C37.6 36.2001 38.1 36.6001 38.1 37.2001C38.2 37.8001 37.7 38.3001 37.1 38.3001Z" fill="#333333"/>
<path d="M18.6 39.6001C18.6 40.2001 18.1 40.7001 17.5 40.7001C16.9 40.7001 16.4 40.2001 16.4 39.7001C16.4 39.1001 16.9 38.6001 17.5 38.6001C18.1 38.5001 18.6 39.0001 18.6 39.6001Z" fill="#333333"/>
<path d="M57.6 39.6C57.6 40.2 57.1 40.7 56.5 40.7C55.9 40.7 55.5 40.3 55.4 39.7C55.4 39.1 55.8 38.6 56.5 38.6C57.1 38.5 57.6 39.1 57.6 39.6Z" fill="#333333"/>
<path d="M31.6 33.9C31.6 34.5 31.1 35 30.5 35C29.9 35 29.4 34.5 29.4 34C29.4 33.4 29.9 32.9 30.5 32.9C31.1 32.8 31.6 33.3 31.6 33.9Z" fill="#333333"/>
<path d="M25.1 37.2001C25.1 37.8001 24.6 38.3001 24 38.3001C23.4 38.3001 22.9 37.8001 22.9 37.2001C22.9 36.6001 23.4 36.1001 24 36.1001C24.6 36.2001 25.1 36.6001 25.1 37.2001Z" fill="#333333"/>
<path d="M50 38.3001C49.4 38.3001 48.9 37.8001 48.9 37.2001C48.9 36.6001 49.4 36.2001 50 36.2001C50.6 36.2001 51.1 36.7001 51.1 37.2001C51.2 37.8001 50.6 38.3001 50 38.3001Z" fill="#333333"/>
<path d="M30.6 40.7C30 40.7 29.5 40.2 29.5 39.6C29.5 39 30 38.5 30.6 38.5C31.2 38.5 31.7 38.9 31.7 39.5C31.6 40.2 31.2 40.7 30.6 40.7Z" fill="#333333"/>
<path d="M30.5 44.3C31.1 44.3 31.6 44.7 31.6 45.3C31.6 45.9 31.2 46.4 30.6 46.4C30 46.4 29.5 46 29.5 45.4C29.4 44.9 29.9 44.3 30.5 44.3Z" fill="#333333"/>
<path d="M43.5 44.3C44.1 44.3 44.6 44.8 44.6 45.4C44.6 46 44.1 46.4 43.5 46.5C42.9 46.5 42.4 46.1 42.4 45.5C42.5 44.9 42.9 44.3 43.5 44.3Z" fill="#333333"/>
<path d="M43.6 40.7001C43 40.7001 42.5 40.3001 42.5 39.7001C42.5 39.1001 42.9 38.6001 43.5 38.6001C44.1 38.6001 44.6 39.1001 44.6 39.7001C44.6 40.2001 44.2 40.7001 43.6 40.7001Z" fill="#333333"/>
<path d="M25.1 43C25.1 43.6 24.6 44.1 24 44.1C23.4 44.1 22.9 43.6 22.9 43C22.9 42.4 23.4 41.9 24 41.9C24.7 41.9 25.1 42.4 25.1 43Z" fill="#333333"/>
<path d="M51.1 42.9C51.1 43.5 50.6 44 50 44C49.4 44 49 43.5 48.9 43C48.9 42.4 49.3 41.9 49.9 41.9C50.6 41.9 51.1 42.4 51.1 42.9Z" fill="#333333"/>
<path d="M71.8 21.4C71.8 22 71.4 22.2 70.9 22.4C67.6 23.7 64.3 25.1 61 26.4C58.6 27.4 56.1 28.4 53.7 29.3C53.3 29.4 52.8 29.4 52.5 29.3C48.7 27.8 44.9 26.3 41.1 24.7C38.5 23.6 35.9 23.6 33.2 24.7C29.4 26.3 25.6 27.8 21.7 29.3C21.4 29.4 20.9 29.4 20.6 29.3C14.9 27 9.1 24.7 3.4 22.4C2.9 22.2 2.4 22 2.4 21.3C2.4 20.6 2.9 20.4 3.4 20.2C13.6 16.2 23.8 12.1 34 7.90001C36 7.10001 38 7.00001 40.1 7.90001C50.4 12 60.6 16.2 70.9 20.3C71.4 20.5 71.8 20.8 71.8 21.4Z" fill="white"/>
<path d="M47.1 29.7001C40.4 29.7001 33.8 29.7001 27 29.7001C27.2 29.6001 27.3 29.5001 27.4 29.4001C29.6 28.5001 31.9 27.6001 34.1 26.7001C36 25.9001 37.9 25.9001 39.8 26.7001C42.2 27.7001 44.6 28.6001 47 29.6001C47.1 29.6001 47.1 29.6001 47.1 29.7001Z" fill="white"/>
</g>
<defs>
<clipPath id="clip0_207_794">
<rect width="74" height="74" fill="white" transform="translate(0 0.300049)"/>
</clipPath>
</defs>
</svg>
