<svg width="74" height="75" viewBox="0 0 74 75" fill="none" xmlns="http://www.w3.org/2000/svg">
<g clip-path="url(#clip0_207_782)">
<path d="M74 39.5C74 51.1001 74 62.7001 74 74.2001C49.3 74.2001 24.7 74.2001 0 74.2001C0 49.6001 0 25 0 0.300049C24.7 0.300049 49.3 0.300049 74 0.300049C74 13 74 25.8 74 38.5C73.8 38.2001 73.6 37.9 73.4 37.6C71.6 35.8 69.8 34 68 32.1C67.9 32 67.8 31.9 67.7 31.9C67.2 31.6 66.8 31.6 66.4 32C66 32.4001 65.9 32.9 66.3 33.4C66.4 33.6 66.6 33.8 66.8 34C68.5 35.7001 70.1 37.3 71.7 38.9C69.1 41.5 66.5 44 64.1 46.5C59.4 41.8 54.7 37.1 50 32.4C52.5 29.9 55 27.4 57.6 24.8C57.7 24.9 57.9 25.1 58.1 25.3C59.5 26.7 61 28.2 62.4 29.6C62.5 29.7 62.6 29.8 62.8 30C63.3 30.5 64 30.5 64.4 30.1C64.8 29.7 64.8 29 64.3 28.5C62.6 26.8 60.9 25.1 59.2 23.4C58.1 22.4 57.1 22.4 56 23.4C54.9 24.5 53.7 25.7 52.6 26.8C51.2 28.2 49.8 29.6 48.4 31C47.4 32 47.5 33.1 48.4 34C48.6 34.3 49 34.5 49.4 34.8C49 35.1 48.7 35.3 48.4 35.6C47.3 36.7 46.2 37.3 44.6 37.1C43.1 36.9 41.6 37.3 40.2 37.8C39.4 38.1 38.7 38.4001 37.9 38.7001C37.5 38.8 37 38.9001 36.6 38.7001C34.1 37.6001 31.6 36.9 28.8 37.1C28.4 37.1 27.9 37 27.6 36.8C26.8 36.2001 26 35.5 25.2 34.9C25.4 34.6 25.6 34.5 25.7 34.3C27 32.9 27 32 25.7 30.6C23.3 28.2 20.9 25.8 18.5 23.4C17.2 22.1 16.2 22.1 15 23.4C11 27.3 7.2 31.2 3.3 35.1C2.5 35.9 1.6 36.8 0.8 37.7001C0 38.6001 -0.1 39.7001 0.8 40.5C3.5 43.2001 6.1 45.9001 8.9 48.5C9.7 49.3 10.8 49.2001 11.6 48.5C11.9 48.2001 12.1 47.9001 12.4 47.5C13.1 48.3 13.8 49 14.5 49.8C14.7 50 14.8 50.4001 14.8 50.7001C14.9 51.3 14.9 51.9001 14.9 52.5C14.9 54.1 15.5 55.4001 16.5 56.5C17.5 57.6 18.5 58.6 19.6 59.6C23.7 63.7 27.8 67.8 31.9 71.9C33.1 73.1 34.4 73.6 36 72.9C36.8 72.5 37.4 71.8 38.1 71.3C41.1 73.7001 42.6 73.6001 44.6 70.6001C48 71.3 49.6 69.7001 49.3 65.9C50.5 65.4 51.2 64.6001 51.6 63.3C51.7 63 51.9 62.6 52.1 62.3C54 60.4 55.9 58.5 57.8 56.5C58.8 55.5 59.3 54.2001 59.4 52.8C59.4 52.2001 59.4 51.5 59.5 50.9C59.6 50.4 59.7 49.9 59.9 49.6C60.4 48.9 61.1 48.3 61.7 47.6C61.9 47.8 62 47.9001 62.1 48C63.5 49.4001 64.4 49.4001 65.8 48C68.1 45.7001 70.5 43.3 72.8 41C73.3 40.5 73.6 40 74 39.5ZM44.2 25.5C42.8 24.8 41.6 24.1 40.3 23.5C39.5 23.1 38.9 23.3 38.6 23.8C38.3 24.4 38.5 25 39.3 25.4C40.5 26 41.6 26.6 42.8 27.3C43.7 27.8 44.6 27.9 45.4 27.3C46.3 26.7 46.3 25.7 46.2 24.8C45.9 22.9 45.6 20.9 45.2 19C45.1 18.6 45.2 18.3 45.5 18.1C47 16.7 48.5 15.2 49.9 13.8C50.6 13.1 50.9 12.4 50.5 11.4C50.2 10.5 49.5 10.1 48.6 9.90005C46.6 9.60005 44.6 9.30005 42.5 9.00005C42.2 8.90005 42 8.70005 41.8 8.30005C41 6.50005 40.1 4.80005 39.2 3.00005C38.8 2.10005 38.1 1.40005 37.1 1.40005C36 1.40005 35.4 2.10005 35 3.00005C34.1 4.80005 33.3 6.50005 32.4 8.30005C32.2 8.70005 32 8.90005 31.5 8.90005C29.5 9.20005 27.6 9.50005 25.7 9.70005C24.7 9.80005 23.9 10.2 23.6 11.2C23.3 12.2 23.7 13 24.4 13.7C25.7 14.9 26.9 16.2 28.2 17.3C28.9 17.9 29 18.5 28.9 19.4C28.5 21.1 28.3 22.9 28 24.6C27.8 25.5 28 26.4 28.8 27C29.6 27.6 30.5 27.5 31.4 27.1C32 26.8 32.6 26.5 33.2 26.1C33.9 25.8 34.5 25.4 35.2 25C35.8 24.7001 35.9 24.1 35.6 23.6C35.3 23.1 34.8 22.9 34.2 23.1C33.8 23.3 33.4 23.5 33 23.7C32.1 24.2 31.1 24.7 30.1 25.2C30.1 24.9 30.1 24.8 30.1 24.7C30.4 22.7 30.7 20.8 31.1 18.8C31.3 17.8 31 17 30.3 16.3C29.3 15.3 28.3 14.3 27.3 13.3C26.8 12.8 26.2 12.3 25.6 11.7C25.9 11.6 26.1 11.6 26.3 11.5C28.1 11.2 29.9 10.9 31.7 10.7C33 10.6 33.8 10 34.3 8.80005C35 7.20005 35.8 5.70005 36.6 4.10005C36.7 4.30005 36.9 4.00005 37 3.70005C37.2 4.00005 37.3 4.30005 37.4 4.50005C38.2 6.20005 39.1 7.90005 39.9 9.50005C40.3 10.4 40.9 10.9 41.9 11C42.8 11.1 43.7 11.3 44.5 11.4C45.8 11.6 47 11.8 48.1 11.9C46.8 13.3 45.6 14.8 44.2 16.1C43.1 17.2 42.7 18.2 43.1 19.8C43.6 21.6 43.8 23.5 44.2 25.5ZM67.6 18.5C67.4 17.3 67.2 16 67 14.6C67 14.3 67.1 13.9 67.3 13.7C68.1 12.8 69 12 69.9 11.2C70.5 10.6 70.8 10 70.6 9.10005C70.3 8.30005 69.7 7.90005 68.9 7.80005C67.7 7.60005 66.5 7.50005 65.3 7.30005C65 7.20005 64.7 7.00005 64.5 6.70005C63.9 5.70005 63.4 4.70005 63 3.60005C62.6 2.80005 62.1 2.30005 61.2 2.30005C60.3 2.30005 59.8 2.80005 59.4 3.60005C58.9 4.70005 58.4 5.70005 57.8 6.80005C57.6 7.10005 57.3 7.30005 57 7.40005C55.8 7.60005 54.6 7.80005 53.4 7.90005C52.5 8.00005 51.9 8.40005 51.6 9.20005C51.3 10 51.7 10.7 52.3 11.2C53.2 12 54 12.9 54.9 13.7C55.1 13.9 55.2 14.2 55.2 14.5C55 15.7 54.8 17 54.6 18.2C54.5 19 54.6 19.7 55.3 20.2C56 20.7 56.7 20.6 57.4 20.2C58.4 19.7 59.4 19.2 60.4 18.6C60.9 18.3 61.3 18.3 61.8 18.6C62.9 19.2 63.9 19.8 65 20.3C66.4 21 67.7 20.1 67.6 18.5ZM6.4 18.5C6.3 20.2001 7.7 21 9.1 20.4C10.2 19.9 11.3 19.3 12.3 18.7C12.7 18.5 13.1 18.4 13.5 18.7C14.5 19.3 15.6 19.8 16.7 20.4C17.4 20.8 18.1 20.8 18.7 20.3C19.4 19.8 19.5 19.2 19.4 18.4C19.2 17.1 19 15.9 18.8 14.6C18.8 14.3 18.9 14 19.1 13.8C19.9 12.9 20.8 12.1 21.7 11.3C22.3 10.7 22.7 10.1 22.4 9.30005C22.1 8.40005 21.5 8.10005 20.6 8.00005C19.4 7.80005 18.3 7.60005 17.1 7.50005C16.7 7.40005 16.4 7.20005 16.3 6.90005C15.8 5.80005 15.3 4.80005 14.7 3.70005C14.3 2.90005 13.8 2.40005 12.9 2.40005C12.1 2.40005 11.5 2.90005 11.2 3.60005C10.7 4.70005 10.1 5.80005 9.6 6.90005C9.5 7.10005 9.2 7.30005 8.9 7.40005C7.7 7.60005 6.5 7.80005 5.3 7.90005C4.5 8.00005 3.8 8.40005 3.6 9.20005C3.3 10 3.6 10.6 4.2 11.2C5.1 12.1 6 12.9 6.8 13.8C7 14 7.1 14.4 7.1 14.7C6.9 16 6.6 17.4 6.4 18.5Z" fill="white"/>
<path d="M74 39.5C73.6 40 73.3 40.5 72.9 40.9C70.6 43.3 68.2 45.6 65.9 47.9C64.5 49.3 63.6 49.3 62.2 47.9C62.1 47.8 62 47.7 61.8 47.5C61.2 48.2 60.5 48.8 60 49.5C59.7 49.9 59.6 50.4 59.6 50.8C59.5 51.4 59.5 52 59.5 52.7C59.4 54.1 58.9 55.4 57.9 56.4C56 58.3 54.1 60.2 52.2 62.2C52 62.5 51.8 62.8 51.7 63.2C51.4 64.5 50.6 65.3 49.4 65.8C49.7 69.6 48.1 71.2 44.7 70.5C42.6 73.5 41.2 73.6 38.2 71.2C37.5 71.8 36.9 72.5 36.1 72.8C34.5 73.5 33.2 73 32 71.8C27.9 67.7 23.8 63.6 19.7 59.5C18.7 58.5 17.6 57.4 16.6 56.4C15.5 55.3 15 53.9 15 52.4C15 51.8 14.9 51.2 14.9 50.6C14.9 50.3 14.8 49.9 14.6 49.7C14 48.9 13.3 48.2 12.5 47.4C12.2 47.8 11.9 48.1 11.7 48.4C10.9 49.2 9.79999 49.2 8.99999 48.4C6.29999 45.7 3.59999 43.1 0.899988 40.4C0.0999878 39.6 0.0999878 38.5 0.899988 37.6C1.69999 36.7 2.59999 35.9 3.39999 35C7.19999 31.2 11 27.3 14.9 23.5C16.2 22.2 17.2 22.3 18.4 23.5C20.8 25.9 23.2 28.3 25.6 30.7C27 32.1 27 33 25.6 34.4C25.5 34.6 25.3 34.7 25.1 35C25.9 35.7 26.6 36.3 27.5 36.9C27.8 37.1 28.3 37.2 28.7 37.2C31.4 37 34 37.7 36.5 38.8C36.9 39 37.4 38.9 37.8 38.8C38.6 38.6 39.3 38.2 40.1 37.9C41.5 37.4 43 37 44.5 37.2C46.1 37.4 47.3 36.7 48.3 35.7C48.5 35.4 48.9 35.2 49.3 34.9C48.9 34.5 48.5 34.3 48.3 34.1C47.3 33.1 47.3 32 48.3 31.1C49.7 29.7 51.1 28.3 52.5 26.9C53.6 25.8 54.8 24.6 55.9 23.5C56.9 22.3 58 22.3 59 23.3C60.7 25 62.4 26.7 64.1 28.4C64.6 28.9 64.6 29.6 64.2 30C63.8 30.4 63.1 30.4 62.6 29.9C62.5 29.8 62.4 29.7 62.2 29.5C60.8 28.1 59.3 26.6 57.9 25.2C57.7 25 57.6 24.9 57.4 24.7C54.8 27.3 52.3 29.8 49.8 32.3C54.5 37 59.2 41.7 63.9 46.4C66.4 43.9 68.9 41.4 71.5 38.8C69.9 37.2 68.2 35.5 66.6 33.9C66.4 33.7 66.2 33.5 66.1 33.3C65.8 32.8 65.8 32.3 66.2 31.9C66.6 31.5 67.1 31.5 67.5 31.8C67.6 31.9 67.7 31.9 67.8 32C69.6 33.8 71.4 35.6 73.2 37.5C73.4 37.7 73.6 38.1 73.8 38.4C74 38.8 74 39.2 74 39.5ZM13.9 46.2C14.1 46.4 14.4 46.6 14.7 46.9C16.3 48.2 17 49.9 16.9 51.9C16.8 53.5 17.5 54.6 18.6 55.7C23.5 60.5 28.3 65.4 33.2 70.3C33.4 70.5 33.6 70.7 33.8 70.9C34.4 71.3 34.9 71.2 35.4 70.8C35.9 70.4 36 69.8 35.7 69.2C35.5 68.9 35.3 68.6 35 68.4C33.6 67 32.2 65.5 30.8 64.1C29.8 63 28.8 62 27.7 60.9C27.2 60.4 27.2 59.7 27.6 59.3C28 58.9 28.7 58.9 29.2 59.4C29.4 59.5 29.5 59.7 29.7 59.9C33 63.3 36.3 66.7 39.6 70.1C39.8 70.3 39.9 70.5 40.1 70.6C40.7 71.1 41.4 71 41.9 70.5C42.4 70 42.4 69.3 41.9 68.7C41.8 68.5 41.6 68.3 41.4 68.2C38 64.8 34.7 61.3 31.3 57.9C31.1 57.7 30.8 57.5 30.8 57.2C30.7 56.8 30.7 56.3 30.9 56C31.2 55.5 31.7 55.5 32.2 55.8C32.5 56 32.7 56.2 32.9 56.4C36.7 60.3 40.6 64.2 44.4 68.1C45.2 68.9 45.9 69 46.5 68.4C47.1 67.8 47 67 46.3 66.3C46.2 66.2 46.2 66.2 46.1 66.1C42.3 62.3 38.6 58.5 34.8 54.7C34.6 54.5 34.5 54.4 34.4 54.2C34 53.7 34 53.2 34.4 52.8C34.8 52.4 35.4 52.4 35.9 52.8C36.1 53 36.2 53.1 36.4 53.3C39.7 56.6 43 60 46.3 63.3C46.5 63.5 46.7 63.8 47 63.9C47.6 64.2 48.1 64.2 48.6 63.7C49.1 63.3 49.1 62.6 48.8 62.1C48.7 61.9 48.5 61.7 48.3 61.5C44.1 57.3 39.9 53.1 35.8 49C35.4 48.6 35 48.5 34.5 48.6C33.3 48.8 32.1 49 30.9 49.1C29.8 49.2 28.8 49.1 27.9 48.4C25.8 46.8 26.1 43.5 28.5 42.4C30.2 41.6 31.9 41 33.7 40.3C33.5 40.2 33.4 40.1 33.3 40.1C32.1 39.3 30.5 39.3 29 39.3C27.6 39.4 26.4 38.9 25.4 38C24.8 37.5 24.2 36.9 23.7 36.5C20.4 39.7 17.2 42.9 13.9 46.2ZM50.5 36.4C50.3 36.6 50.2 36.7 50 36.9C48.5 38.6 46.6 39.5 44.2 39.4C43 39.3 41.7 39.6 40.6 40C37.7 41 34.8 42.2 31.9 43.4C31.2 43.7 30.5 43.9 29.8 44.2C29.2 44.5 29 45 29.1 45.6C29.2 46.3 29.7 46.6 30.4 46.7C30.7 46.7 31 46.7 31.3 46.7C32.7 46.5 34 46.4 35.4 46.1C36.2 46 36.8 46.2 37.3 46.8C41.6 51.2 46 55.5 50.3 59.9C50.5 60.1 50.6 60.3 50.8 60.6C52.4 59 53.8 57.5 55.3 56.1C56.7 54.8 57.5 53.3 57.4 51.3C57.3 49.8 57.9 48.4 59.1 47.4C59.6 47 60 46.6 60.5 46.2C56.9 42.9 53.7 39.7 50.5 36.4ZM10.1 46.7C14.8 42 19.5 37.3 24.2 32.6C21.7 30.1 19.1 27.5 16.6 25C12 29.6 7.19999 34.4 2.59999 39.1C5.09999 41.6 7.59999 44.1 10.1 46.7Z" fill="#333333"/>
<path d="M44.2 25.5C43.9 23.5 43.6 21.6 43.2 19.7C42.9 18.2 43.2 17.1 44.3 16C45.7 14.7 46.9 13.2 48.2 11.8C47.1 11.6 45.9 11.5 44.6 11.3C43.7 11.2 42.8 11 42 10.9C41 10.8 40.4 10.2 40 9.4C39.2 7.7 38.4 6 37.5 4.4C37.4 4.2 37.3 3.9 37.1 3.6C36.9 4 36.8 4.2 36.6 4.5C35.8 6 35 7.6 34.3 9.2C33.8 10.4 32.9 11 31.7 11.1C29.9 11.3 28.1 11.6 26.3 11.9C26.1 11.9 25.9 12 25.6 12.1C26.2 12.7 26.7 13.2 27.3 13.7C28.3 14.7 29.3 15.7 30.3 16.7C31 17.4 31.3 18.2 31.1 19.2C30.7 21.2 30.4 23.1 30.1 25.1C30.1 25.2 30.1 25.4 30.1 25.6C31.1 25.1 32.1 24.6 33 24.1C33.4 23.9 33.8 23.7 34.2 23.5C34.8 23.3 35.3 23.5 35.6 24C35.9 24.5 35.7 25.1 35.2 25.4C34.6 25.8 33.9 26.1 33.2 26.5C32.6 26.8 32 27.1 31.4 27.5C30.5 28 29.7 28.1 28.8 27.4C28 26.8 27.9 25.9 28 25C28.3 23.2 28.6 21.5 28.9 19.8C29.1 18.9 29 18.3 28.2 17.7C26.9 16.5 25.7 15.3 24.4 14.1C23.7 13.4 23.2 12.6 23.6 11.6C23.9 10.6 24.7 10.2 25.7 10.1C27.7 9.8 29.6 9.5 31.5 9.3C31.9 9.2 32.2 9.1 32.4 8.7C33.2 6.9 34.1 5.2 35 3.4C35.4 2.1 36 1.5 37 1.5C38.1 1.5 38.7 2.2 39.1 3.1C40 4.8 40.9 6.6 41.8 8.3C42 8.7 42.2 8.9 42.7 8.9C44.7 9.2 46.7 9.5 48.8 9.8C49.7 9.9 50.4 10.4 50.7 11.3C51 12.2 50.7 13 50.1 13.7C48.6 15.1 47.2 16.6 45.7 18C45.4 18.3 45.3 18.5 45.4 18.9C45.8 20.8 46.1 22.8 46.4 24.7C46.6 25.7 46.5 26.6 45.6 27.2C44.7 27.8 43.9 27.7 43 27.2C41.8 26.6 40.7 26 39.5 25.3C38.7 24.9 38.5 24.3 38.8 23.7C39.1 23.1 39.7 23 40.5 23.4C41.5 24.1 42.8 24.8 44.2 25.5Z" fill="#333333"/>
<path d="M67.6 18.5C67.7 20.1 66.3 21 65 20.4C63.9 19.9 62.8 19.3 61.8 18.7C61.3 18.4 60.9 18.4 60.4 18.7C59.4 19.3 58.4 19.8 57.4 20.3C56.7 20.7 56 20.8 55.3 20.3C54.6 19.8 54.5 19.1 54.6 18.3C54.8 17.1 55 15.8 55.2 14.6C55.2 14.3 55.1 14 54.9 13.8C54.1 12.9 53.2 12.1 52.3 11.3C51.7 10.7 51.3 10.1 51.6 9.3C51.9 8.4 52.5 8.1 53.4 8C54.6 7.8 55.8 7.7 57 7.5C57.3 7.4 57.6 7.2 57.7 7C58.3 6 58.8 4.9 59.3 3.8C59.7 3 60.2 2.5 61.1 2.5C62 2.5 62.5 3.1 62.9 3.8C63.4 4.8 63.9 5.9 64.4 6.9C64.5 7.2 64.9 7.4 65.2 7.5C66.4 7.7 67.6 7.9 68.8 8C69.6 8.1 70.3 8.4 70.5 9.3C70.8 10.1 70.4 10.8 69.8 11.4C68.9 12.2 68.1 13.1 67.2 13.9C67 14.1 66.9 14.5 66.9 14.8C67.2 16 67.5 17.3 67.6 18.5ZM65.4 18.1C65.2 16.9 65.1 15.8 64.8 14.8C64.6 13.8 64.9 13 65.6 12.3C66.4 11.6 67.1 10.8 67.8 10C66.7 9.8 65.7 9.7 64.6 9.5C63.6 9.4 62.9 8.9 62.5 8C62.1 7 61.5 6 61 4.9C60.4 6 59.9 7 59.5 8C59.1 8.9 58.4 9.3 57.5 9.4C56.4 9.5 55.3 9.7 54.3 9.9C55.1 10.7 55.8 11.6 56.6 12.4C57.3 13 57.5 13.7 57.3 14.7C57.1 15.8 56.9 16.9 56.7 18.1C57.5 17.7 58.3 17.4 59 16.9C60.3 16 61.6 15.9 63 16.9C63.7 17.4 64.5 17.7 65.4 18.1Z" fill="#333333"/>
<path d="M6.39999 18.5C6.59999 17.4 6.79999 16 6.99999 14.7C6.99999 14.4 6.89999 14 6.69999 13.8C5.89999 12.9 4.99998 12.1 4.09999 11.2C3.49999 10.6 3.19999 10 3.49999 9.20005C3.79999 8.40005 4.39999 8.00005 5.19999 7.90005C6.39999 7.70005 7.59999 7.60005 8.79999 7.30005C9.09999 7.30005 9.39999 7.00005 9.49999 6.80005C10.1 5.70005 10.6 4.60005 11.1 3.50005C11.5 2.80005 12 2.30005 12.8 2.30005C13.7 2.30005 14.2 2.80005 14.6 3.60005C15.1 4.70005 15.7 5.70005 16.2 6.80005C16.4 7.20005 16.6 7.40005 17 7.40005C18.2 7.50005 19.3 7.80005 20.5 7.90005C21.4 8.00005 22 8.40005 22.3 9.20005C22.6 10 22.2 10.7 21.6 11.2C20.7 12 19.9 12.9 19 13.7C18.8 13.9 18.7 14.2 18.7 14.5C18.9 15.8 19.1 17 19.3 18.3C19.4 19.1 19.3 19.7 18.6 20.2C17.9 20.7 17.3 20.6 16.6 20.3C15.5 19.7 14.5 19.2 13.4 18.6C13 18.4 12.6 18.4 12.2 18.6C11.1 19.2 10.1 19.8 8.99999 20.3C7.69999 21 6.39999 20.2001 6.39999 18.5ZM6.19999 10C6.99998 10.8 7.69999 11.7 8.49999 12.4C9.19999 13.1 9.49999 13.8 9.19999 14.7C8.99999 15.8 8.79999 16.9 8.59999 18.1C9.39999 17.7 10.1 17.4 10.6 17C12.1 15.9 13.6 15.9 15.1 17C15.7 17.4 16.4 17.7 17.1 18.1C16.9 17.2 16.9 16.4 16.7 15.7C16.1 14 16.6 12.7 18 11.7C18.6 11.2 19.1 10.6 19.7 10C18.6 9.80005 17.5 9.70005 16.4 9.50005C15.4 9.40005 14.7 9.00005 14.4 8.00005C14.2 7.40005 13.9 6.90005 13.6 6.40005C13.4 5.90005 13.1 5.50005 12.9 4.90005C12.3 6.00005 11.8 7.00005 11.4 8.00005C11 9.00005 10.4 9.40005 9.39998 9.50005C8.29998 9.60005 7.29998 9.80005 6.19999 10Z" fill="#333333"/>
<path d="M13.9 46.2C17.2 42.9 20.4 39.7 23.7 36.4C24.2 36.9 24.8 37.4 25.4 37.9C26.4 38.8 27.6 39.3 29 39.2C30.6 39.1 32.2 39.2 33.7 39.8C33.8 39.8 33.9 39.9 34.1 40C32.3 40.7 30.6 41.3 28.9 42.1C26.5 43.2 26.2 46.4 28.3 48.1C29.2 48.8 30.2 48.9 31.3 48.8C32.5 48.7 33.7 48.5 34.9 48.3C35.4 48.2 35.8 48.3 36.2 48.7C40.4 52.9 44.5 57.1 48.7 61.2C48.9 61.4 49.1 61.6 49.2 61.8C49.5 62.3 49.5 63 49 63.4C48.5 63.8 48 63.9 47.4 63.6C47.1 63.4 46.9 63.2 46.7 63C43.4 59.7 40.1 56.3 36.8 53C36.6 52.8 36.5 52.7 36.3 52.5C35.8 52.1 35.2 52.1 34.8 52.5C34.4 53 34.4 53.5 34.8 53.9C34.9 54.1 35.1 54.2 35.2 54.4C39 58.2 42.7 62 46.5 65.8C46.6 65.9 46.6 65.9 46.7 66C47.4 66.8 47.5 67.6 46.9 68.1C46.3 68.7 45.5 68.6 44.8 67.8C40.8 64.1 37 60.2 33.1 56.3C32.9 56.1 32.7 55.8 32.4 55.7C31.9 55.4 31.4 55.5 31.1 55.9C30.9 56.2 30.9 56.7 31 57.1C31 57.3 31.3 57.5 31.5 57.8C34.9 61.2 38.2 64.7 41.6 68.1C41.8 68.3 41.9 68.4 42.1 68.6C42.5 69.2 42.5 69.9 42.1 70.4C41.6 70.9 40.9 71 40.3 70.5C40.1 70.4 39.9 70.2 39.8 70C36.5 66.6 33.2 63.2 29.9 59.8C29.7 59.6 29.6 59.5 29.4 59.3C28.9 58.8 28.2 58.8 27.8 59.2C27.4 59.6 27.4 60.3 27.9 60.8C28.9 61.9 29.9 62.9 31 64C32.4 65.4 33.8 66.9 35.2 68.3C35.4 68.6 35.7 68.8 35.9 69.1C36.2 69.7 36.1 70.2 35.6 70.7C35.1 71.1 34.6 71.2 34 70.8C33.8 70.6 33.6 70.4 33.4 70.2C28.5 65.3 23.7 60.5 18.8 55.6C17.7 54.5 17 53.4 17.1 51.8C17.2 49.8 16.5 48.1 14.9 46.8C14.5 46.7 14.2 46.4 13.9 46.2Z" fill="white"/>
<path d="M50.5 36.4C53.8 39.7 56.9 42.8 60.3 46.2C59.9 46.6 59.4 47 58.9 47.4C57.8 48.4 57.2 49.8 57.2 51.3C57.3 53.2 56.5 54.8 55.1 56.1C53.6 57.5 52.2 59 50.6 60.6C50.4 60.3 50.3 60.1 50.1 59.9C45.8 55.5 41.4 51.2 37.1 46.8C36.5 46.2 36 46 35.2 46.1C33.9 46.3 32.5 46.5 31.1 46.7C30.8 46.7 30.5 46.8 30.2 46.7C29.5 46.7 29.1 46.3 28.9 45.6C28.8 45 29 44.4 29.6 44.2C30.3 43.9 31 43.6 31.7 43.4C34.6 42.3 37.5 41.1 40.4 40C41.6 39.6 42.8 39.3 44 39.4C46.4 39.5 48.2 38.7 49.8 36.9C50.1 36.7 50.3 36.6 50.5 36.4Z" fill="white"/>
<path d="M10.1 46.7C7.5 44.1 5 41.6 2.5 39.1C7.2 34.4 11.9 29.7 16.6 25C19.1 27.5 21.7 30 24.2 32.6C19.6 37.2 14.9 41.9 10.1 46.7Z" fill="white"/>
<path d="M65.4 18.1C64.5 17.6 63.8 17.3 63.1 16.9C61.7 16 60.5 16 59.1 16.9C58.4 17.4 57.7 17.7 56.8 18.1C57 16.9 57.1 15.8 57.4 14.7C57.6 13.8 57.3 13.1 56.7 12.4C55.9 11.6 55.2 10.8 54.4 9.90002C55.4 9.70003 56.5 9.60002 57.6 9.40002C58.5 9.30002 59.2 8.90002 59.6 8.00002C60.1 7.00002 60.6 6.00002 61.1 4.90002C61.6 6.00002 62.2 7.00002 62.6 8.00002C63 8.90002 63.7 9.40002 64.7 9.50002C65.8 9.60002 66.8 9.80002 67.9 10C67.1 10.8 66.4 11.6 65.7 12.3C65 13 64.6 13.8 64.9 14.8C65.1 15.9 65.2 16.9 65.4 18.1Z" fill="white"/>
<path d="M6.20001 10C7.20001 9.8 8.30001 9.7 9.40001 9.5C10.4 9.4 11 9 11.5 8.1C11.9 7.1 12.5 6.1 13 5C13.3 5.6 13.5 6 13.7 6.5C14 7 14.3 7.6 14.5 8.1C14.9 9 15.6 9.5 16.5 9.6C17.6 9.7 18.6 9.9 19.8 10.1C19.2 10.7 18.8 11.3 18.1 11.8C16.7 12.9 16.2 14.1 16.8 15.8C17 16.5 17.1 17.3 17.2 18.2C16.4 17.8 15.8 17.6 15.2 17.1C13.7 16 12.2 16 10.7 17.1C10.1 17.5 9.40001 17.8 8.70001 18.2C8.90001 17 9.00001 15.9 9.30001 14.8C9.50001 13.8 9.20001 13.1 8.60001 12.5C7.70001 11.7 7.00001 10.8 6.20001 10Z" fill="white"/>
</g>
<defs>
<clipPath id="clip0_207_782">
<rect width="74" height="74" fill="white" transform="translate(0 0.300049)"/>
</clipPath>
</defs>
</svg>
