<svg width="19" height="19" viewBox="0 0 19 19" fill="none" xmlns="http://www.w3.org/2000/svg">
<path d="M13.8364 0.125732H5.53935C2.83901 0.125732 0.642181 2.32256 0.642181 5.0229V13.3201C0.642181 16.0203 2.83901 18.2171 5.53935 18.2171H13.8365C16.5367 18.2171 18.7335 16.0203 18.7335 13.3201V5.0229C18.7335 2.32256 16.5367 0.125732 13.8364 0.125732V0.125732ZM9.68786 14.1181C6.96019 14.1181 4.74114 11.8991 4.74114 9.17141C4.74114 6.44374 6.96019 4.22469 9.68786 4.22469C12.4155 4.22469 14.6346 6.44374 14.6346 9.17141C14.6346 11.8991 12.4155 14.1181 9.68786 14.1181ZM14.7529 5.39129C13.9468 5.39129 13.2912 4.73567 13.2912 3.92959C13.2912 3.12352 13.9468 2.46776 14.7529 2.46776C15.5589 2.46776 16.2147 3.12352 16.2147 3.92959C16.2147 4.73567 15.5589 5.39129 14.7529 5.39129Z" fill="white"/>
<path d="M9.6874 5.28516C7.54468 5.28516 5.80127 7.02843 5.80127 9.17128C5.80127 11.314 7.54468 13.0574 9.6874 13.0574C11.8303 13.0574 13.5735 11.314 13.5735 9.17128C13.5735 7.02843 11.8303 5.28516 9.6874 5.28516Z" fill="white"/>
<path d="M14.7521 3.52783C14.531 3.52783 14.351 3.70782 14.351 3.92894C14.351 4.15005 14.531 4.33004 14.7521 4.33004C14.9733 4.33004 15.1533 4.15019 15.1533 3.92894C15.1533 3.70768 14.9733 3.52783 14.7521 3.52783Z" fill="white"/>
</svg>
