<svg width="18" height="18" viewBox="0 0 18 18" fill="none" xmlns="http://www.w3.org/2000/svg">
<path d="M12.7307 10.8012L12.7243 10.8542C11.1709 10.08 11.0085 9.97686 10.8079 10.2778C10.6687 10.4862 10.2632 10.9587 10.141 11.0986C10.0174 11.2364 9.89449 11.247 9.68469 11.1516C9.47277 11.0456 8.79252 10.8231 7.98723 10.1026C7.35995 9.54102 6.93894 8.85229 6.81462 8.64037C6.60764 8.28293 7.04066 8.23207 7.43483 7.48612C7.50547 7.33778 7.46944 7.22122 7.41717 7.11597C7.36419 7.01001 6.94247 5.97161 6.76587 5.55767C6.59634 5.14514 6.42186 5.19741 6.29118 5.19741C5.8843 5.16209 5.58691 5.16774 5.32483 5.44041C4.18472 6.69355 4.47222 7.98625 5.44775 9.36089C7.3649 11.87 8.38634 12.332 10.254 12.9734C10.7584 13.1337 11.2183 13.1111 11.5821 13.0589C11.9875 12.9946 12.8303 12.5495 13.0061 12.0515C13.1863 11.5535 13.1863 11.1403 13.1333 11.0449C13.081 10.9496 12.9426 10.8966 12.7307 10.8012Z" fill="white"/>
<path d="M14.8593 3.13123C9.4278 -2.11938 0.438952 1.68878 0.43542 9.09601C0.43542 10.5766 0.82323 12.0205 1.56212 13.2955L0.364075 17.6483L4.83907 16.4814C10.4231 19.4977 17.3147 15.4924 17.3175 9.10025C17.3175 6.85675 16.4416 4.74534 14.8487 3.15878L14.8593 3.13123ZM15.9061 9.07694C15.9019 14.4688 9.98303 17.8362 5.30176 15.0841L5.04746 14.9329L2.39849 15.6217L3.10841 13.0469L2.93958 12.782C0.0264188 8.1445 3.37331 2.08365 8.89165 2.08365C10.7664 2.08365 12.526 2.81477 13.8512 4.13926C15.1757 5.45244 15.9061 7.21207 15.9061 9.07694Z" fill="white"/>
</svg>
